<?xml version="1.0" encoding="UTF-8"?>
<svg version="1.1" xmlns="http://www.w3.org/2000/svg" width="584" height="427">
<path d="M0 0 C3.96 0 7.92 0 12 0 C12 12.54 12 25.08 12 38 C14.97 38 17.94 38 21 38 C21 42.62 21 47.24 21 52 C27.6 52 34.2 52 41 52 C40.9690625 48.8134375 40.9690625 48.8134375 40.9375 45.5625 C40.91626217 43.37500389 40.92741054 41.18639453 41 39 C41.33 38.67 41.66 38.34 42 38 C44.97 38 47.94 38 51 38 C51 25.46 51 12.92 51 0 C54.96 0 58.92 0 63 0 C63 12.54 63 25.08 63 38 C65.97 38 68.94 38 72 38 C72 42.62 72 47.24 72 52 C78.6 52 85.2 52 92 52 C91.9690625 49.091875 91.9690625 49.091875 91.9375 46.125 C91.875 40.25 91.875 40.25 93 38 C95.97 38 98.94 38 102 38 C102 25.46 102 12.92 102 0 C105.96 0 109.92 0 114 0 C114 12.54 114 25.08 114 38 C116.97 38 119.94 38 123 38 C123 42.62 123 47.24 123 52 C124.93875 51.855625 126.8775 51.71125 128.875 51.5625 C136.37302439 51.57066778 140.70296936 53.79191203 146 59 C151.58482568 65.62539462 153 72.40834984 153 81 C156.96 81 160.92 81 165 81 C165 83.64 165 86.28 165 89 C166.76428345 88.99214478 166.76428345 88.99214478 168.56420898 88.98413086 C172.91202031 88.96608337 177.2598283 88.95456892 181.60766602 88.94506836 C183.4924373 88.94002756 185.37720465 88.93319502 187.26196289 88.92456055 C189.96501636 88.91248383 192.66801831 88.90676932 195.37109375 88.90234375 C196.21900986 88.89718246 197.06692596 88.89202118 197.9405365 88.88670349 C199.96071068 88.88650805 201.98077934 88.93793789 204 89 C205 90 205 90 205.1328125 92.46875 C205.12894531 93.96921875 205.12894531 93.96921875 205.125 95.5 C205.12757813 96.5003125 205.13015625 97.500625 205.1328125 98.53125 C205 101 205 101 204 102 C201.1156618 102.08865208 198.25537842 102.11521296 195.37109375 102.09765625 C194.07474754 102.09553383 194.07474754 102.09553383 192.75221252 102.09336853 C189.98060708 102.08775239 187.2090812 102.07519719 184.4375 102.0625 C182.5631522 102.05748708 180.68880315 102.05292381 178.81445312 102.04882812 C174.20960456 102.03777772 169.60481579 102.0205023 165 102 C165 104.97 165 107.94 165 111 C161.04 111 157.08 111 153 111 C153 117.93 153 124.86 153 132 C156.96 132 160.92 132 165 132 C165 134.64 165 137.28 165 140 C166.76428345 139.99214478 166.76428345 139.99214478 168.56420898 139.98413086 C172.91202031 139.96608337 177.2598283 139.95456892 181.60766602 139.94506836 C183.4924373 139.94002756 185.37720465 139.93319502 187.26196289 139.92456055 C189.96501636 139.91248383 192.66801831 139.90676932 195.37109375 139.90234375 C196.21900986 139.89718246 197.06692596 139.89202118 197.9405365 139.88670349 C199.96071068 139.88650805 201.98077934 139.93793789 204 140 C205 141 205 141 205.1328125 143.46875 C205.12894531 144.96921875 205.12894531 144.96921875 205.125 146.5 C205.12757813 147.5003125 205.13015625 148.500625 205.1328125 149.53125 C205 152 205 152 204 153 C201.1156618 153.08865208 198.25537842 153.11521296 195.37109375 153.09765625 C194.07474754 153.09553383 194.07474754 153.09553383 192.75221252 153.09336853 C189.98060708 153.08775239 187.2090812 153.07519719 184.4375 153.0625 C182.5631522 153.05748708 180.68880315 153.05292381 178.81445312 153.04882812 C174.20960456 153.03777772 169.60481579 153.0205023 165 153 C165 155.97 165 158.94 165 162 C161.04 162 157.08 162 153 162 C153 168.93 153 175.86 153 183 C156.96 183 160.92 183 165 183 C165 185.64 165 188.28 165 191 C166.76428345 190.99214478 166.76428345 190.99214478 168.56420898 190.98413086 C172.91202031 190.96608337 177.2598283 190.95456892 181.60766602 190.94506836 C183.4924373 190.94002756 185.37720465 190.93319502 187.26196289 190.92456055 C189.96501636 190.91248383 192.66801831 190.90676932 195.37109375 190.90234375 C196.21900986 190.89718246 197.06692596 190.89202118 197.9405365 190.88670349 C199.96071068 190.88650805 201.98077934 190.93793789 204 191 C205 192 205 192 205.1328125 194.46875 C205.12894531 195.96921875 205.12894531 195.96921875 205.125 197.5 C205.12757813 198.5003125 205.13015625 199.500625 205.1328125 200.53125 C205 203 205 203 204 204 C201.1156618 204.08865208 198.25537842 204.11521296 195.37109375 204.09765625 C194.07474754 204.09553383 194.07474754 204.09553383 192.75221252 204.09336853 C189.98060708 204.08775239 187.2090812 204.07519719 184.4375 204.0625 C182.5631522 204.05748708 180.68880315 204.05292381 178.81445312 204.04882812 C174.20960456 204.03777772 169.60481579 204.0205023 165 204 C165 206.97 165 209.94 165 213 C161.04 213 157.08 213 153 213 C152.938125 214.629375 152.87625 216.25875 152.8125 217.9375 C152.08574238 225.6829442 149.25106654 231.26155043 143.4375 236.4375 C136.99461542 241.66025402 131.16959026 241.50982458 123 242 C123 246.29 123 250.58 123 255 C120.03 255 117.06 255 114 255 C114 267.54 114 280.08 114 293 C110.04 293 106.08 293 102 293 C102 280.46 102 267.92 102 255 C99.03 255 96.06 255 93 255 C92 254 92 254 91.90234375 251.27734375 C91.93489583 248.18489583 91.96744792 245.09244792 92 242 C85.4 242 78.8 242 72 242 C72 246.29 72 250.58 72 255 C69.03 255 66.06 255 63 255 C63 267.54 63 280.08 63 293 C59.04 293 55.08 293 51 293 C51 280.46 51 267.92 51 255 C48.03 255 45.06 255 42 255 C41 254 41 254 40.90234375 251.27734375 C40.93489583 248.18489583 40.96744792 245.09244792 41 242 C34.4 242 27.8 242 21 242 C21 246.29 21 250.58 21 255 C18.03 255 15.06 255 12 255 C12 267.54 12 280.08 12 293 C8.04 293 4.08 293 0 293 C0 280.46 0 267.92 0 255 C-2.97 255 -5.94 255 -9 255 C-10 254 -10 254 -10.09765625 251.27734375 C-10.08605469 250.17519531 -10.07445313 249.07304687 -10.0625 247.9375 C-10.05347656 246.83277344 -10.04445313 245.72804688 -10.03515625 244.58984375 C-10.02355469 243.73519531 -10.01195313 242.88054687 -10 242 C-10.83402344 242.00902344 -11.66804688 242.01804687 -12.52734375 242.02734375 C-21.18116286 241.79935081 -25.89646621 240.13001333 -32 234 C-32.78375 233.278125 -33.5675 232.55625 -34.375 231.8125 C-37.64141576 226.15908811 -39 219.48781402 -39 213 C-39.85464844 213.01160156 -40.70929688 213.02320313 -41.58984375 213.03515625 C-42.69457031 213.04417969 -43.79929688 213.05320312 -44.9375 213.0625 C-46.03964844 213.07410156 -47.14179687 213.08570313 -48.27734375 213.09765625 C-51 213 -51 213 -52 212 C-52 209.36 -52 206.72 -52 204 C-64.54 204 -77.08 204 -90 204 C-90 199.71 -90 195.42 -90 191 C-77.46 191 -64.92 191 -52 191 C-52 188.36 -52 185.72 -52 183 C-47.71 183 -43.42 183 -39 183 C-39 176.07 -39 169.14 -39 162 C-41.9390625 162.0309375 -41.9390625 162.0309375 -44.9375 162.0625 C-46.95832876 162.08377188 -48.98035801 162.07244053 -51 162 C-51.33 161.67 -51.66 161.34 -52 161 C-52 158.36 -52 155.72 -52 153 C-64.54 153 -77.08 153 -90 153 C-90 148.71 -90 144.42 -90 140 C-77.46 140 -64.92 140 -52 140 C-52 137.36 -52 134.72 -52 132 C-47.71 132 -43.42 132 -39 132 C-39 125.07 -39 118.14 -39 111 C-41.9390625 111.0309375 -41.9390625 111.0309375 -44.9375 111.0625 C-46.95832876 111.08377188 -48.98035801 111.07244053 -51 111 C-51.33 110.67 -51.66 110.34 -52 110 C-52 107.36 -52 104.72 -52 102 C-64.54 102 -77.08 102 -90 102 C-90 97.71 -90 93.42 -90 89 C-77.46 89 -64.92 89 -52 89 C-52 86.36 -52 83.72 -52 81 C-47.71 81 -43.42 81 -39 81 C-39.0825 80.0925 -39.165 79.185 -39.25 78.25 C-39.29699497 72.55186003 -36.9404151 67.27550356 -35 62 C-34.34 62 -33.68 62 -33 62 C-32.74992187 61.40703125 -32.49984375 60.8140625 -32.2421875 60.203125 C-29.92557658 56.09441884 -26.25596901 53.86312807 -22 52 C-17.94160195 51.52368502 -14.06357211 51.62870915 -10 52 C-10.01160156 51.07316406 -10.02320312 50.14632812 -10.03515625 49.19140625 C-10.04417969 47.99386719 -10.05320312 46.79632813 -10.0625 45.5625 C-10.07410156 44.36753906 -10.08570312 43.17257813 -10.09765625 41.94140625 C-10 39 -10 39 -9 38 C-6.03 38 -3.06 38 0 38 C0 25.46 0 12.92 0 0 Z M-25 70 C-26.07136158 73.21408475 -26.13108747 75.52797831 -26.14044189 78.9078064 C-26.14615204 80.14158524 -26.15186218 81.37536407 -26.15774536 82.64653015 C-26.1589907 84.0161437 -26.1601158 85.38575736 -26.16113281 86.75537109 C-26.16576148 88.19595975 -26.17078621 89.63654718 -26.17617798 91.07713318 C-26.18929837 94.99245517 -26.1957461 98.90776002 -26.20018864 102.82310057 C-26.20311964 105.26896743 -26.20722448 107.71482961 -26.21169281 110.16069412 C-26.22536613 117.81253042 -26.23503388 125.464356 -26.2388947 133.11620367 C-26.2433767 141.9506701 -26.26093179 150.78498192 -26.2898953 159.61940134 C-26.31150463 166.44751216 -26.32159856 173.27557946 -26.32293582 180.10372412 C-26.32398429 184.18229148 -26.32990105 188.26071346 -26.34775543 192.33924484 C-26.36422348 196.17568379 -26.3663979 200.01186787 -26.35761642 203.84832954 C-26.35684539 205.25561391 -26.36119752 206.66291191 -26.37107468 208.07016182 C-26.38377691 209.9928084 -26.37613192 211.91555719 -26.36749268 213.83822632 C-26.36895924 214.91374945 -26.3704258 215.98927258 -26.3719368 217.09738731 C-25.78171539 221.7035036 -23.87522358 224.23151101 -20.4375 227.25 C-16.72302289 229.91680408 -14.80088942 230.12777137 -10.25041199 230.14044189 C-9.02642197 230.14615204 -7.80243195 230.15186218 -6.54135132 230.15774536 C-5.17755137 230.15899078 -3.81375131 230.16011586 -2.44995117 230.16113281 C-1.0193621 230.16576012 0.41122574 230.17078466 1.84181213 230.17617798 C5.73446678 230.1893132 9.62710418 230.19574922 13.51977754 230.20018864 C15.95106569 230.20311781 18.3823491 230.20722234 20.81363487 230.21169281 C28.41848823 230.22537126 36.02333078 230.23503597 43.62819558 230.2388947 C52.41060203 230.24337519 61.19285281 230.26092113 69.97521192 230.2898953 C76.76084011 230.31150572 83.5464245 230.32159865 90.33208674 230.32293582 C94.38607714 230.3239844 98.43992129 230.32990313 102.4938755 230.34775543 C106.3081407 230.36422494 110.12214954 230.36639719 113.93643761 230.35761642 C115.33565838 230.35684542 116.73489286 230.3611972 118.13407898 230.37107468 C120.04583117 230.38377794 121.95768618 230.37613154 123.86946106 230.36749268 C124.93890866 230.36895924 126.00835627 230.3704258 127.11021137 230.3719368 C131.70765578 229.78021229 134.23716248 227.86878718 137.25 224.4375 C139.91534168 220.7250598 140.12776357 218.80488203 140.14044189 214.25714111 C140.14615204 213.03459625 140.15186218 211.81205139 140.15774536 210.55245972 C140.15899079 209.19024668 140.16011587 207.82803354 140.16113281 206.46582031 C140.16576017 205.03685375 140.17078471 203.60788843 140.17617798 202.17892456 C140.18931393 198.29033487 140.19574952 194.40176245 140.20018864 190.51315403 C140.20311807 188.0838682 140.20722269 185.6545871 140.21169281 183.22530365 C140.22537229 175.62525366 140.23503614 168.02521447 140.2388947 160.42515302 C140.24337355 151.65124655 140.26091146 142.87749603 140.2898953 134.10363698 C140.31151674 127.32308866 140.32159927 120.54258418 140.32293582 113.76200175 C140.32398373 109.71189176 140.32988816 105.66192826 140.34775543 101.61185455 C140.36424367 97.80004856 140.36638807 93.98849904 140.35761642 90.17667007 C140.35684639 88.77948189 140.36118444 87.38227989 140.37107468 85.9851265 C140.38380881 84.07372419 140.37612034 82.1622187 140.36749268 80.25079346 C140.36895924 79.18226765 140.3704258 78.11374184 140.3719368 77.01283646 C139.77771434 72.19939746 138.04079907 68.96273914 134.5 65.6875 C130.64371574 63.08450813 127.75897891 62.87242094 123.21281433 62.85955811 C122.00572311 62.85384796 120.7986319 62.84813782 119.55496216 62.84225464 C118.2152711 62.8410093 116.87557992 62.8398842 115.53588867 62.83886719 C114.12647878 62.83423838 112.71707014 62.82921363 111.30766296 62.82382202 C107.47698188 62.81070177 103.64631832 62.80425376 99.81561828 62.79981136 C97.42200659 62.79687995 95.0283997 62.792775 92.63479042 62.78830719 C85.14473467 62.77463305 77.65468986 62.76496607 70.16462249 62.7611053 C61.52033624 62.75662504 52.87620816 62.73907835 44.23197001 62.7101047 C37.54906522 62.6884831 30.86620491 62.67840076 24.18326551 62.67706418 C20.19241431 62.67601646 16.2017118 62.67011587 12.21089745 62.65224457 C8.45571056 62.6357556 4.70078401 62.63361226 0.94557381 62.64238358 C-0.43065209 62.64315352 -1.80689202 62.63881675 -3.18308258 62.62892532 C-5.06596682 62.61618856 -6.94895585 62.62388062 -8.8318634 62.63250732 C-10.41058086 62.63030748 -10.41058086 62.63030748 -12.0211916 62.6280632 C-17.47646349 63.30921354 -21.48847029 65.83818701 -25 70 Z " fill="#E75A5B" transform="translate(123,90)"/>
<path d="M0 0 C0.90411118 -0.00571014 1.80822235 -0.01142029 2.73973083 -0.01730347 C4.21648285 -0.01898026 4.21648285 -0.01898026 5.72306824 -0.02069092 C7.28715675 -0.02813828 7.28715675 -0.02813828 8.88284302 -0.03573608 C12.33374185 -0.05034578 15.78459472 -0.05715765 19.23551941 -0.06268311 C21.63441977 -0.0684354 24.03332012 -0.07419312 26.43222046 -0.07995605 C31.46341669 -0.09046255 36.49459695 -0.09630757 41.52580261 -0.09979248 C47.96861524 -0.10527737 54.41121655 -0.129307 60.8539629 -0.15776443 C65.80996312 -0.17639914 70.76591251 -0.18159686 75.72194481 -0.18312836 C78.09696801 -0.18615336 80.47199035 -0.19417671 82.84697914 -0.20731354 C86.17172398 -0.22439147 89.49595343 -0.22248928 92.82072449 -0.21600342 C93.79915314 -0.2252182 94.77758179 -0.23443298 95.78565979 -0.243927 C101.45588035 -0.2093233 105.46426936 0.40079322 110.46598816 3.14044189 C114.22656787 7.09894686 115.5839932 10.18722721 115.61315918 15.59216309 C115.62389214 16.95888908 115.62389214 16.95888908 115.63484192 18.35322571 C115.63753082 19.35067307 115.64021973 20.34812042 115.64299011 21.37579346 C115.64956131 22.42812668 115.65613251 23.4804599 115.66290283 24.56468201 C115.6826425 28.05347767 115.69429988 31.54223028 115.70426941 35.03106689 C115.70834494 36.22212791 115.71242046 37.41318893 115.71661949 38.64034271 C115.73748293 44.94424771 115.75178357 51.24813092 115.76115417 57.55206299 C115.77222002 64.06334713 115.80662163 70.57428967 115.84632587 77.08545303 C115.87246999 82.09206783 115.88084407 87.09860096 115.88443565 92.10527802 C115.88930716 94.50543271 115.90093708 96.90558363 115.91947365 99.30567169 C115.94381754 102.66656066 115.94290829 106.02656208 115.93595886 109.38751221 C115.95517395 110.87153786 115.95517395 110.87153786 115.97477722 112.38554382 C115.92872015 118.50385285 115.08246793 122.15095667 111.46598816 127.14044189 C108.84098816 129.01544189 108.84098816 129.01544189 106.46598816 130.14044189 C105.80598816 130.47044189 105.14598816 130.80044189 104.46598816 131.14044189 C103.02474904 131.2386456 101.57909228 131.27546408 100.13452148 131.28088379 C99.22474548 131.28659393 98.31496948 131.29230408 97.37762451 131.29818726 C95.87606056 131.29986404 95.87606056 131.29986404 94.34416199 131.30157471 C93.29197479 131.30653961 92.2397876 131.31150452 91.15571594 131.31661987 C87.66147719 131.33126997 84.16728388 131.33804909 80.67301941 131.34356689 C78.24884031 131.34931706 75.82466124 131.35507481 73.40048218 131.36083984 C68.3102548 131.37135866 63.22004325 131.37719521 58.12980652 131.38067627 C51.61070906 131.38615553 45.09182104 131.4101679 38.57278919 131.43864822 C33.56188347 131.45728518 28.55102801 131.46248083 23.54009056 131.46401215 C21.13715663 131.46703801 18.73422357 131.47506426 16.33132362 131.48819733 C12.96565033 131.50527556 9.60048618 131.50337267 6.23478699 131.49688721 C4.74840477 131.51070938 4.74840477 131.51070938 3.23199463 131.52481079 C-2.46934145 131.49044293 -6.50516287 130.89549653 -11.53401184 128.14044189 C-15.6856332 123.87956734 -16.65221218 120.4486092 -16.67445374 114.64439392 C-16.68016388 113.7486969 -16.68587402 112.85299988 -16.6917572 111.93016052 C-16.69287506 110.95500992 -16.69399292 109.97985931 -16.69514465 108.97515869 C-16.70010956 107.94218658 -16.70507446 106.90921448 -16.71018982 105.84494019 C-16.72479885 102.4265069 -16.73161127 99.00812002 -16.73713684 95.58966064 C-16.7428892 93.21318053 -16.74864692 90.83670043 -16.75440979 88.46022034 C-16.7649161 83.47610254 -16.77076124 78.49200085 -16.77424622 73.50787354 C-16.77973102 67.12559419 -16.80376054 60.74352817 -16.83221817 54.36131573 C-16.85085362 49.45163859 -16.85605064 44.54201276 -16.85758209 39.63230324 C-16.86060693 37.27960862 -16.86862975 34.92691487 -16.88176727 32.57425499 C-16.89884676 29.28064166 -16.89694265 25.98754851 -16.89045715 22.69390869 C-16.89967194 21.72483078 -16.90888672 20.75575287 -16.91838074 19.75730896 C-16.8835862 14.10838826 -16.25366698 10.12712974 -13.53401184 5.14044189 C-9.25930233 0.97534032 -5.82169873 0.02209862 0 0 Z M-3.53401184 13.14044189 C-3.6315166 14.50419318 -3.66032784 15.87294099 -3.66099548 17.24017334 C-3.66381531 18.12358902 -3.66663513 19.0070047 -3.66954041 19.91719055 C-3.66751617 20.89385178 -3.66549194 21.870513 -3.66340637 22.87677002 C-3.66515869 23.89943466 -3.66691101 24.9220993 -3.66871643 25.97575378 C-3.67313711 29.37441681 -3.67019619 32.77302829 -3.66682434 36.17169189 C-3.66749732 38.5219931 -3.66846729 40.87229425 -3.66972351 43.22259521 C-3.67120078 48.15566671 -3.669045 53.08872015 -3.66438293 58.02178955 C-3.65868564 64.36094857 -3.66196449 70.70006525 -3.6679554 77.03922272 C-3.67156023 81.8946159 -3.67042278 86.74999897 -3.66782761 91.60539246 C-3.66715812 93.94349675 -3.6679875 96.28160196 -3.67030716 98.6197052 C-3.67283241 101.88119966 -3.66899488 105.14262452 -3.66340637 108.40411377 C-3.6654306 109.38077499 -3.66745483 110.35743622 -3.66954041 111.36369324 C-3.66672058 112.24710892 -3.66390076 113.1305246 -3.66099548 114.04071045 C-3.66061846 114.81279594 -3.66024143 115.58488144 -3.65985298 116.38036346 C-3.72515936 118.16758728 -3.72515936 118.16758728 -2.53401184 119.14044189 C-1.18293864 119.237905 0.17317189 119.26675769 1.52775574 119.26742554 C2.40275726 119.27024536 3.27775879 119.27306519 4.17927551 119.27597046 C5.146586 119.27394623 6.11389648 119.271922 7.11051941 119.26983643 C8.62988602 119.2724649 8.62988602 119.2724649 10.1799469 119.27514648 C13.54614447 119.27956711 16.91229 119.27662627 20.27848816 119.27325439 C22.60636912 119.27392737 24.93425002 119.27489735 27.26213074 119.27615356 C32.14812385 119.27763082 37.03409872 119.27547508 41.92008972 119.27081299 C48.19871472 119.26511569 54.47729698 119.26839455 60.75592041 119.27438545 C65.56499049 119.27799031 70.37405035 119.27685283 75.18312073 119.27425766 C77.49889633 119.27358818 79.81467285 119.27441754 82.13044739 119.27673721 C85.36080907 119.2792625 88.59110049 119.27542489 91.82145691 119.26983643 C93.27242264 119.27287277 93.27242264 119.27287277 94.75270081 119.27597046 C96.06520309 119.27174072 96.06520309 119.27174072 97.40422058 119.26742554 C98.16893173 119.26704851 98.93364288 119.26667149 99.7215271 119.26628304 C101.49495859 119.32960391 101.49495859 119.32960391 102.46598816 118.14044189 C102.56349292 116.77669061 102.59230415 115.4079428 102.5929718 114.04071045 C102.59579163 113.15729477 102.59861145 112.27387909 102.60151672 111.36369324 C102.59949249 110.38703201 102.59746826 109.41037079 102.59538269 108.40411377 C102.59713501 107.38144913 102.59888733 106.35878448 102.60069275 105.30513 C102.60511343 101.90646698 102.60217251 98.5078555 102.59880066 95.10919189 C102.59947364 92.75889069 102.60044361 90.40858954 102.60169983 88.05828857 C102.6031771 83.12521707 102.60102132 78.19216364 102.59635925 73.25909424 C102.59066196 66.91993522 102.59394081 60.58081853 102.59993172 54.24166107 C102.60353655 49.38626788 102.6023991 44.53088482 102.59980392 39.67549133 C102.59913444 37.33738703 102.59996382 34.99928183 102.60228348 32.66117859 C102.60480873 29.39968413 102.6009712 26.13825927 102.59538269 22.87677002 C102.59841904 21.41177818 102.59841904 21.41177818 102.60151672 19.91719055 C102.59728699 18.59206703 102.59728699 18.59206703 102.5929718 17.24017334 C102.59259478 16.46808784 102.59221775 15.69600235 102.5918293 14.90052032 C102.65713568 13.1132965 102.65713568 13.1132965 101.46598816 12.14044189 C100.11491496 12.04297879 98.75880443 12.0141261 97.40422058 12.01345825 C96.52921906 12.01063843 95.65421753 12.0078186 94.75270081 12.00491333 C93.78539032 12.00693756 92.81807983 12.00896179 91.82145691 12.01104736 C90.80854584 12.00929504 89.79563477 12.00754272 88.75202942 12.0057373 C85.38583184 12.00131668 82.01968632 12.00425752 78.65348816 12.00762939 C76.3256072 12.00695642 73.9977263 12.00598644 71.66984558 12.00473022 C66.78385247 12.00325297 61.8978776 12.00540871 57.0118866 12.0100708 C50.7332616 12.0157681 44.45467934 12.01248924 38.17605591 12.00649834 C33.36698583 12.00289348 28.55792597 12.00403096 23.74885559 12.00662613 C21.43307999 12.00729561 19.11730347 12.00646625 16.80152893 12.00414658 C13.57116725 12.00162129 10.34087583 12.0054589 7.11051941 12.01104736 C5.65955368 12.00801102 5.65955368 12.00801102 4.17927551 12.00491333 C3.30427399 12.00773315 2.42927246 12.01055298 1.52775574 12.01345825 C0.76304459 12.01383528 -0.00166656 12.0142123 -0.78955078 12.01460075 C-2.56298228 11.95127988 -2.56298228 11.95127988 -3.53401184 13.14044189 Z " fill="#E75B5B" transform="translate(130.5340118408203,170.85955810546875)"/>
<path d="M0 0 C1.32 0 2.64 0 4 0 C4 0.99 4 1.98 4 3 C7.29219213 4.09739738 9.67631312 4.11226288 13.14231873 4.09333801 C14.42802765 4.08893204 15.71373657 4.08452606 17.03840637 4.07998657 C18.4662785 4.07006789 19.89415019 4.06008653 21.32202148 4.05004883 C22.82334178 4.04321949 24.32466441 4.03688906 25.82598877 4.03102112 C29.06064534 4.01768435 32.29527183 4.00154342 35.52990532 3.98346901 C40.64337834 3.95565929 45.75685093 3.93863519 50.87037659 3.92399597 C52.62051681 3.91885204 54.370657 3.91369541 56.12079716 3.90852642 C56.99724483 3.90594086 57.8736925 3.9033553 58.77669919 3.90069139 C70.68266796 3.86462619 82.58854326 3.81922534 94.49438477 3.75317383 C102.52411781 3.70871289 110.55376945 3.67843271 118.58361489 3.66431636 C122.83381833 3.65623419 127.08371066 3.64068188 131.33379936 3.60764503 C135.33029529 3.57663469 139.3264168 3.56411691 143.32302856 3.56586266 C144.79042051 3.56316262 146.2578182 3.55357843 147.72511482 3.53663635 C149.72685694 3.51452366 151.72884329 3.51941356 153.73069763 3.52571106 C155.41173411 3.51823207 155.41173411 3.51823207 157.12673092 3.510602 C160.66882489 4.11391957 161.87354831 5.14670555 164 8 C164 8.99 164 9.98 164 11 C159.71 11.99 155.42 12.98 151 14 C150.67 18.62 150.34 23.24 150 28 C147.03 28 144.06 28 141 28 C141 40.54 141 53.08 141 66 C137.04 66 133.08 66 129 66 C129 53.46 129 40.92 129 28 C126.03 28 123.06 28 120 28 C119 27 119 27 118.90234375 24.27734375 C118.93489583 21.18489583 118.96744792 18.09244792 119 15 C112.4 15 105.8 15 99 15 C99 19.29 99 23.58 99 28 C96.03 28 93.06 28 90 28 C90 40.54 90 53.08 90 66 C86.04 66 82.08 66 78 66 C78 53.46 78 40.92 78 28 C75.03 28 72.06 28 69 28 C68 27 68 27 67.90234375 24.27734375 C67.93489583 21.18489583 67.96744792 18.09244792 68 15 C61.4 15 54.8 15 48 15 C48 19.29 48 23.58 48 28 C45.03 28 42.06 28 39 28 C39 40.54 39 53.08 39 66 C35.04 66 31.08 66 27 66 C27 53.46 27 40.92 27 28 C24.03 28 21.06 28 18 28 C17 27 17 27 16.90234375 24.27734375 C16.91394531 23.17519531 16.92554687 22.07304687 16.9375 20.9375 C16.94652344 19.83277344 16.95554687 18.72804688 16.96484375 17.58984375 C16.97644531 16.73519531 16.98804687 15.88054687 17 15 C16.07960938 15.0309375 15.15921875 15.061875 14.2109375 15.09375 C10.44489424 14.98379253 8.23852623 13.85058642 5 12 C5 11.34 5 10.68 5 10 C3.68 10 2.36 10 1 10 C-0.25664978 7.09399739 -1 5.20395416 -1 2 C-0.67 1.34 -0.34 0.68 0 0 Z M1 4 C2 6 2 6 2 6 Z " fill="#E75758" transform="translate(96,317)"/>
<path d="M0 0 C9.57 0 19.14 0 29 0 C30.96923307 3.93846614 32.52969049 7.22304616 33.8671875 11.30859375 C34.19307861 12.29593506 34.51896973 13.28327637 34.85473633 14.30053711 C35.19142334 15.33573486 35.52811035 16.37093262 35.875 17.4375 C36.22651123 18.50556885 36.57802246 19.5736377 36.94018555 20.67407227 C37.64167624 22.80559287 38.34150268 24.93766201 39.03955078 27.0703125 C40.28327079 30.86406951 41.54591613 34.65132972 42.8125 38.4375 C44.54166667 43.625 46.27083333 48.8125 48 54 C48.1858667 53.4423999 48.3717334 52.8847998 48.56323242 52.31030273 C57.625 25.125 57.625 25.125 58.80859375 21.5859375 C59.6642764 19.01047299 60.5105073 16.43302109 61.34765625 13.8515625 C61.57179199 13.16562012 61.79592773 12.47967773 62.02685547 11.77294922 C62.64986167 9.86525174 63.26843346 7.95610775 63.88671875 6.046875 C65 3 65 3 67 0 C69.88916016 -0.34057617 69.88916016 -0.34057617 73.5390625 -0.29296875 C75.49199219 -0.2784668 75.49199219 -0.2784668 77.484375 -0.26367188 C78.86458923 -0.23860388 80.24479756 -0.21320902 81.625 -0.1875 C83.01300663 -0.17245517 84.40102867 -0.15876641 85.7890625 -0.14648438 C89.19309509 -0.1110257 92.59635622 -0.06160298 96 0 C95.38859366 4.49867743 94.62540701 8.67085007 93.25 13 C92.89292969 14.12664062 92.53585937 15.25328125 92.16796875 16.4140625 C90.35404023 21.98324773 88.50985919 27.54179053 86.64111328 33.09277344 C85.58774451 36.22640515 84.54444681 39.36338544 83.5 42.5 C82.913396 44.25896606 82.913396 44.25896606 82.31494141 46.0534668 C81.49818078 48.503315 80.68368411 50.95387195 79.87084961 53.4050293 C76.91374916 62.31130375 73.88917602 71.19297854 70.83532715 80.0664978 C66.49173818 92.68990316 62.1867297 105.32351287 58 118 C51.4 118 44.8 118 38 118 C34.62361561 108.99630829 34.62361561 108.99630829 33.421875 105.48681641 C33.15149414 104.69884674 32.88111328 103.91087708 32.60253906 103.09902954 C32.32120117 102.27486542 32.03986328 101.45070129 31.75 100.6015625 C31.45061523 99.72656097 31.15123047 98.85155945 30.84277344 97.95004272 C30.21358139 96.1098077 29.58500993 94.26936038 28.95703125 92.42871094 C28.00484751 89.63920122 27.04940863 86.85082087 26.09375 84.0625 C25.478968 82.2630887 24.86437838 80.46361165 24.25 78.6640625 C23.96866211 77.84394684 23.68732422 77.02383118 23.39746094 76.17886353 C21.70815019 71.21632444 20.13895869 66.23013236 18.65681458 61.20175171 C17.73484551 58.11115805 16.71687888 55.05630019 15.6875 52 C15.25117726 50.70186486 14.81498506 49.40368585 14.37890625 48.10546875 C14.15348145 47.43563965 13.92805664 46.76581055 13.69580078 46.07568359 C12.98827259 43.96501527 12.2880368 41.85205471 11.58984375 39.73828125 C11.10163542 38.2629967 10.61335308 36.78773664 10.125 35.3125 C9.88080322 34.57290039 9.63660645 33.83330078 9.38500977 33.07128906 C7.99841122 28.90035788 6.56057835 24.75339189 5.0625 20.62109375 C4.74007324 19.72543701 4.41764648 18.82978027 4.08544922 17.90698242 C3.45984063 16.17630161 2.82642957 14.44841509 2.18408203 12.72387695 C1.89903809 11.93327881 1.61399414 11.14268066 1.3203125 10.328125 C1.06523926 9.6362207 0.81016602 8.94431641 0.54736328 8.23144531 C0 6 0 6 0 0 Z M7 6 C7.9937886 9.33521478 8.99564422 12.66795272 10 16 C10.29003906 16.96550781 10.58007812 17.93101562 10.87890625 18.92578125 C14.64511559 31.32748312 18.76993149 43.60613777 23.125 55.8125 C25.24419186 61.75437491 27.18919352 67.7236016 29.0078125 73.765625 C30.48557475 78.58289722 32.09339578 83.35436988 33.703125 88.12890625 C34.60930277 90.8178304 35.49141389 93.51334589 36.359375 96.21484375 C36.58181885 96.90078613 36.8042627 97.58672852 37.03344727 98.29345703 C37.65475543 100.21141841 38.27088213 102.13105602 38.88671875 104.05078125 C39.79497346 107.06952112 39.79497346 107.06952112 42 109 C45.11338289 103.32919545 47.11053042 97.736969 48.94140625 91.5390625 C50.60658033 85.97209675 52.48474166 80.47667582 54.33789062 74.97021484 C55.44002805 71.69062448 56.53205933 68.40766363 57.625 65.125 C59.39398119 59.81205784 61.16674163 54.50040495 62.94506836 49.19058228 C63.90942594 46.31028387 64.87246129 43.42954407 65.83538818 40.54876709 C66.31110078 39.12658088 66.78735667 37.70457626 67.26422119 36.28277588 C70.6365761 26.22661956 73.87189709 16.13481651 77 6 C74.69 6 72.38 6 70 6 C69.83097168 6.54261475 69.66194336 7.08522949 69.48779297 7.64428711 C64.27203321 24.31456577 58.68528895 40.84745546 53.01318359 57.36694336 C52.72296326 58.2122612 52.43274292 59.05757904 52.13372803 59.92851257 C51.5632251 61.58998802 50.99247012 63.25137695 50.42144775 64.91267395 C48.21808071 71.33394401 46.07155134 77.77281534 43.9519043 84.22216797 C43 87 43 87 42 89 C39.24478948 82.6619268 36.69549339 76.39187561 34.8046875 69.7421875 C33.24600037 64.43054494 31.42273308 59.20138291 29.65722656 53.95556641 C28.59864286 50.80576868 27.54980986 47.65273087 26.5 44.5 C26.0875 43.2625 25.675 42.025 25.25 40.75 C24 37 22.75 33.25 21.5 29.5 C21.09265625 28.28054687 20.6853125 27.06109375 20.265625 25.8046875 C19.37194864 23.12505917 18.48829575 20.44231557 17.609375 17.7578125 C17.2680957 16.72043945 17.2680957 16.72043945 16.91992188 15.66210938 C16.28318443 13.72590776 15.64932531 11.78876027 15.015625 9.8515625 C14.27765622 7.13469933 14.27765622 7.13469933 13 6 C11.00041636 5.95919217 8.99954746 5.95745644 7 6 Z M19 6 C22.28373083 16.66486029 25.72103639 27.26956575 29.27685547 37.84667969 C30.37782118 41.12504485 31.46991859 44.40633076 32.5625 47.6875 C32.96210938 48.88117188 33.36171875 50.07484375 33.7734375 51.3046875 C34.64535122 53.93153583 35.504766 56.56043068 36.3515625 59.1953125 C36.57513428 59.88407471 36.79870605 60.57283691 37.02905273 61.2824707 C37.65228927 63.20394339 38.26968019 65.12730926 38.88671875 67.05078125 C39.79497346 70.06952112 39.79497346 70.06952112 42 72 C43.89351777 69.33504906 45.17389451 67.24508469 44.70703125 63.90234375 C43.89884792 61.22774807 42.96486309 58.62236005 42 56 C41.37940997 54.15215342 40.75911245 52.30419559 40.14672852 50.45361328 C39.71266554 49.14241209 39.27561235 47.83219729 38.83569336 46.52294922 C37.68354082 43.09366704 36.57610761 39.66015567 35.5625 36.1875 C33.91852828 30.57532068 32.03222468 25.04465836 30.15649414 19.5065918 C28.64817548 15.03241768 27.25971823 10.55065676 26 6 C23.69 6 21.38 6 19 6 Z M83 6 C79.88298431 13.08993324 77.2306542 20.16583787 75.02734375 27.58984375 C73.35769936 33.13204736 71.48768895 38.6076457 69.64111328 44.09277344 C68.58774451 47.22640515 67.54444681 50.36338544 66.5 53.5 C63.16666667 63.5 59.83333333 73.5 56.5 83.5 C56.09136719 84.7271875 55.68273437 85.954375 55.26171875 87.21875 C54.39240388 89.82400323 53.5203663 92.42819551 52.64453125 95.03125 C52.42152344 95.69576172 52.19851563 96.36027344 51.96875 97.04492188 C51.35128325 98.88445823 50.73233192 100.72349607 50.11328125 102.5625 C48.99206402 106.02450409 47.97889394 109.49564908 47 113 C48.98 113 50.96 113 53 113 C55.43589161 108.56319743 57.29890319 104.31284968 58.734375 99.45703125 C61.52248855 90.21962533 64.51493643 81.05033801 67.5 71.875 C67.8024765 70.94311859 68.104953 70.01123718 68.41659546 69.05111694 C71.71353899 58.90015795 75.04935894 48.76607567 78.55078125 38.68359375 C78.82908783 37.88097107 79.10739441 37.07834839 79.39413452 36.25140381 C80.70233666 32.48525731 82.02099102 28.72322337 83.35546875 24.96630859 C83.82699466 23.61952626 84.29835823 22.27268708 84.76953125 20.92578125 C85.17792236 19.77505127 85.58631348 18.62432129 86.00708008 17.4387207 C87.12016357 13.58384464 87.59696851 9.98692832 88 6 C86.35 6 84.7 6 83 6 Z " fill="#DE6E6F" transform="translate(450,177)"/>
<path d="M0 0 C2.02236514 1.65210972 2.91992885 2.5337454 3.36914349 5.14952374 C3.36637811 5.98743356 3.36361273 6.82534338 3.36076355 7.68864441 C3.36488754 8.65198196 3.36901154 9.61531952 3.3732605 10.60784912 C3.36247467 11.66304749 3.35168884 12.71824585 3.34057617 13.80541992 C3.34123329 15.47393761 3.34123329 15.47393761 3.34190369 17.17616272 C3.33980991 20.86110856 3.31645047 24.54560217 3.29296875 28.23046875 C3.28737491 30.7820867 3.28310381 33.33370788 3.28010559 35.8853302 C3.26981274 41.92020209 3.24615699 47.95487918 3.21605712 53.98967296 C3.18253223 60.86020548 3.16603194 67.73074575 3.15097082 74.6013397 C3.11960783 88.73431669 3.06683542 102.86714944 3 117 C1.515 117.495 1.515 117.495 0 118 C0 119.65 0 121.3 0 123 C-14.18676603 123.04682035 -28.37351999 123.08190471 -42.56034756 123.10362434 C-49.14825055 123.11405001 -55.73610154 123.12818713 -62.32397461 123.15087891 C-68.68468294 123.17265047 -75.04534133 123.18457778 -81.40608406 123.18975449 C-83.82969003 123.19344248 -86.25329334 123.20064418 -88.67687798 123.21146011 C-92.07818327 123.22603217 -95.47928362 123.22797553 -98.88061523 123.22705078 C-99.87683899 123.23424133 -100.87306274 123.24143188 -101.8994751 123.24884033 C-107.90060735 123.23124936 -113.18615462 122.50625101 -119 121 C-119.1875 118.1875 -119.1875 118.1875 -119 115 C-118.50935657 114.52969707 -118.01871313 114.05939413 -117.51320171 113.57483959 C-115.53604771 111.51714935 -115.61795336 110.43411806 -115.60127258 107.61506653 C-115.58246536 106.27103004 -115.58246536 106.27103004 -115.5632782 104.89984131 C-115.56471329 103.91944885 -115.56614838 102.9390564 -115.56762695 101.92895508 C-115.5574353 100.89463852 -115.54724365 99.86032196 -115.53674316 98.79466248 C-115.50650427 95.36956441 -115.49733044 91.94474551 -115.48828125 88.51953125 C-115.47144268 86.14726321 -115.45329356 83.77500413 -115.43388367 81.40275574 C-115.38628854 75.15401003 -115.35654063 68.90530066 -115.33044434 62.65643311 C-115.30068683 56.28195007 -115.25414002 49.90759239 -115.20898438 43.53320312 C-115.122843 31.02220347 -115.05497597 18.51117342 -115 6 C-114.67 6 -114.34 6 -114 6 C-114 40.98 -114 75.96 -114 112 C-78.36 112.33 -42.72 112.66 -6 113 C-6.144375 95.406875 -6.28875 77.81375 -6.4375 59.6875 C-6.50215454 51.3492395 -6.50215454 51.3492395 -6.56811523 42.8425293 C-6.61135973 37.8675861 -6.61135973 37.8675861 -6.65589905 32.89265442 C-6.67514324 30.67363438 -6.69245982 28.45459711 -6.70826721 26.23554993 C-6.7325571 22.87792438 -6.7629279 19.52040396 -6.79467773 16.1628418 C-6.80333312 14.67541111 -6.80333312 14.67541111 -6.81216335 13.15793133 C-6.82193738 12.25537011 -6.83171141 11.3528089 -6.84178162 10.42289734 C-6.84823417 9.63660792 -6.85468672 8.85031851 -6.8613348 8.04020214 C-6.92796282 5.79749535 -6.92796282 5.79749535 -8 3 C-5.36 3 -2.72 3 0 3 C0 2.01 0 1.02 0 0 Z " fill="#E55354" transform="translate(240,177)"/>
<path d="M0 0 C2.97 0 5.94 0 9 0 C9 38.94 9 77.88 9 118 C5.7 118 2.4 118 -1 118 C-1.02311949 102.76236887 -1.04097948 87.52473976 -1.05181217 72.28709507 C-1.056975 65.21246813 -1.06401744 58.13785226 -1.07543945 51.06323242 C-1.08644681 44.24221122 -1.09227618 37.42120156 -1.09487724 30.60017204 C-1.09673205 27.99133052 -1.1003537 25.38248967 -1.10573006 22.77365303 C-1.11293643 19.13367448 -1.11399111 15.49374425 -1.11352539 11.85375977 C-1.11712067 10.76331863 -1.12071594 9.6728775 -1.12442017 8.5493927 C-1.1230455 7.56356201 -1.12167084 6.57773132 -1.12025452 5.56202698 C-1.12117631 4.70015054 -1.1220981 3.8382741 -1.12304783 2.95028019 C-1 1 -1 1 0 0 Z " fill="#E95454" transform="translate(404,177)"/>
<path d="M0 0 C2.97 0 5.94 0 9 0 C9 38.94 9 77.88 9 118 C5.7 118 2.4 118 -1 118 C-1.02311949 102.76236887 -1.04097948 87.52473976 -1.05181217 72.28709507 C-1.056975 65.21246813 -1.06401744 58.13785226 -1.07543945 51.06323242 C-1.08644681 44.24221122 -1.09227618 37.42120156 -1.09487724 30.60017204 C-1.09673205 27.99133052 -1.1003537 25.38248967 -1.10573006 22.77365303 C-1.11293643 19.13367448 -1.11399111 15.49374425 -1.11352539 11.85375977 C-1.11712067 10.76331863 -1.12071594 9.6728775 -1.12442017 8.5493927 C-1.1230455 7.56356201 -1.12167084 6.57773132 -1.12025452 5.56202698 C-1.12117631 4.70015054 -1.1220981 3.8382741 -1.12304783 2.95028019 C-1 1 -1 1 0 0 Z " fill="#E95354" transform="translate(391,177)"/>
<path d="M0 0 C0.66 0 1.32 0 2 0 C2.00238835 0.75814342 2.00477671 1.51628683 2.00723743 2.29740429 C2.06636567 20.74214535 2.14190177 39.18675235 2.23571491 57.63135052 C2.28068627 66.55101528 2.32009784 75.47064 2.34643555 84.39038086 C2.36940479 92.16455628 2.40279074 99.93860512 2.44870156 107.71268016 C2.47264834 111.82925696 2.49136755 115.94570826 2.49761391 120.06235313 C2.50365823 123.93739807 2.52363417 127.81212186 2.55427551 131.68704796 C2.56306625 133.10881318 2.56677617 134.53062035 2.56500816 135.95241165 C2.56335531 137.89500303 2.58182209 139.83758037 2.60127258 141.78007507 C2.60588155 142.866869 2.61049051 143.95366293 2.61523914 145.07339001 C3.2062055 149.56846274 5.1351443 152.14677578 8.3122406 155.28114319 C13.52531827 158.445783 20.12132399 157.54595068 26.00415039 157.50170898 C27.43533356 157.50549495 28.86651307 157.51099729 30.29768372 157.51808167 C34.17373014 157.53201628 38.04933168 157.52088139 41.92535329 157.50437045 C45.98559349 157.49049713 50.04580847 157.49698253 54.10606384 157.50050354 C60.92275138 157.50320356 67.73926262 157.48974703 74.5559082 157.46655273 C82.43356256 157.43993357 90.31092239 157.43820003 98.18860632 157.4499411 C105.77266647 157.46072437 113.35662022 157.4545282 120.94067192 157.44038582 C124.16585242 157.43463184 127.39095492 157.43470403 130.61613655 157.43945122 C134.41408919 157.44422758 138.21171974 157.43409234 142.00961113 157.41249657 C143.40236703 157.40693785 144.79515395 157.40645502 146.18791199 157.41144943 C148.09074098 157.41741669 149.99360124 157.40304386 151.89637756 157.38768005 C152.96062989 157.38525016 154.02488222 157.38282026 155.12138462 157.38031673 C160.34832483 156.68974416 163.5026512 153.75641167 167 150 C166.625 152.4375 166.625 152.4375 166 155 C165.34 155.33 164.68 155.66 164 156 C163.67 156.99 163.34 157.98 163 159 C164.32 159.66 165.64 160.32 167 161 C167 161.66 167 162.32 167 163 C168.32 163 169.64 163 171 163 C170.95875 162.278125 170.9175 161.55625 170.875 160.8125 C171.04974583 156.88071878 171.98504538 154.13206477 174.625 151.1875 C175.07875 150.795625 175.5325 150.40375 176 150 C176.66 150.33 177.32 150.66 178 151 C178.33 150.01 178.66 149.02 179 148 C179.88767121 150.45219172 180.12206833 151.6503251 179.25 154.1484375 C175.5806918 160.68439272 171.13887906 166.15708356 164 169 C161.75866742 169.28693388 159.5055681 169.48966591 157.25 169.625 C155.49429688 169.73714844 155.49429688 169.73714844 153.703125 169.8515625 C152.81109375 169.90054688 151.9190625 169.94953125 151 170 C151.33 169.34 151.66 168.68 152 168 C153.92578125 167.3671875 153.92578125 167.3671875 156.3125 166.875 C157.09238281 166.70742188 157.87226563 166.53984375 158.67578125 166.3671875 C161 166 161 166 165 166 C164.24849977 162.72226496 164.24849977 162.72226496 161 161 C161 160.34 161 159.68 161 159 C110.18 159.33 59.36 159.66 7 160 C7 159.34 7 158.68 7 158 C6.34 158 5.68 158 5 158 C5 157.01 5 156.02 5 155 C3.68 155 2.36 155 1 155 C0.08921508 157.55019778 -0.17843392 158.59554978 0.9375 161.125 C1.4634375 162.053125 1.4634375 162.053125 2 163 C2 163.66 2 164.32 2 165 C3.32 165 4.64 165 6 165 C6 165.66 6 166.32 6 167 C7.32 167.66 8.64 168.32 10 169 C3.71294555 169 0.50616371 166.60023681 -3.98046875 162.3046875 C-9.5534863 155.94476419 -10.53616222 149.2331206 -11 141 C-14.96 141 -18.92 141 -23 141 C-23 140.67 -23 140.34 -23 140 C-21.7625 139.896875 -20.525 139.79375 -19.25 139.6875 C-15.7207134 139.26198318 -13.62839034 138.51887408 -11 136 C-9.68 136.99 -8.36 137.98 -7 139 C-7.165 139.825 -7.33 140.65 -7.5 141.5 C-8.05896045 145.41272317 -8.06807187 149.05183173 -8 153 C-7.05125 153 -6.1025 153 -5.125 153 C-3.41666667 153 -1.70833333 153 0 153 C-0.33 152.01 -0.66 151.02 -1 150 C-1.07990888 147.98294799 -1.09746792 145.96323357 -1.08229065 143.94465637 C-1.07525116 142.67840927 -1.06821167 141.41216217 -1.06095886 140.10754395 C-1.04797636 138.70165928 -1.0348963 137.29577552 -1.02172852 135.88989258 C-1.01158583 134.41163929 -1.00189214 132.93338287 -0.99261475 131.4551239 C-0.96613275 127.43885754 -0.93335343 123.42266411 -0.89946485 119.40645432 C-0.86512283 115.2104231 -0.8365426 111.01435278 -0.80735779 106.81828308 C-0.7512034 98.87100583 -0.68984829 90.92377753 -0.62663645 82.97655362 C-0.55492917 73.92952652 -0.48900176 64.88246021 -0.42356598 55.83538592 C-0.2888202 37.22353956 -0.14679605 18.61175502 0 0 Z " fill="#CB5C5C" transform="translate(95,162)"/>
<path d="M0 0 C1.20970459 0.00523682 2.41940918 0.01047363 3.66577148 0.01586914 C4.97094727 0.0190918 6.27612305 0.02231445 7.62084961 0.02563477 C9.00952213 0.03399138 10.39819401 0.04245634 11.78686523 0.05102539 C13.17944179 0.05603873 14.57202005 0.06060193 15.96459961 0.06469727 C19.38456394 0.07653105 22.80444367 0.09301659 26.22436523 0.11352539 C25.6129589 4.61220282 24.84977224 8.78437546 23.47436523 13.11352539 C23.11729492 14.24016602 22.76022461 15.36680664 22.39233398 16.52758789 C20.58557083 22.07477378 18.74889151 27.61130808 16.88745117 33.14038086 C15.72203865 36.6082984 14.56766624 40.07989533 13.41186523 43.55102539 C12.98873484 44.8205722 12.56556224 46.09010495 12.14233398 47.35961914 C11.8394043 48.2684082 11.53647461 49.17719727 11.22436523 50.11352539 C9.57436523 49.45352539 7.92436523 48.79352539 6.22436523 48.11352539 C6.72615792 39.95939429 9.58133481 32.52247267 12.22436523 24.86352539 C12.92253016 22.81917506 13.61853122 20.77410645 14.31323242 18.72857666 C14.94128773 16.88262052 15.57486172 15.03854472 16.20874023 13.19458008 C16.98552547 10.83808256 17.67572599 8.53022164 18.22436523 6.11352539 C13.57994493 6.03980443 8.98081678 6.04577485 4.34936523 6.42602539 C3.63006836 6.4840332 2.91077148 6.54204102 2.16967773 6.60180664 C-0.21258147 7.22846519 -1.19846993 8.26358047 -2.77563477 10.11352539 C-4.26669933 7.13139626 -3.89504944 4.39742881 -3.77563477 1.11352539 C-2.77563477 0.11352539 -2.77563477 0.11352539 0 0 Z " fill="#DE6667" transform="translate(519.775634765625,176.886474609375)"/>
<path d="M0 0 C1.17113799 0.00138269 1.17113799 0.00138269 2.36593533 0.00279331 C3.70584782 0.00073132 3.70584782 0.00073132 5.07282925 -0.00137234 C6.55420376 0.00402058 6.55420376 0.00402058 8.06550503 0.00952244 C9.09952953 0.00937641 10.13355404 0.00923038 11.19891262 0.00907993 C14.63485175 0.00977956 18.07073742 0.01757425 21.50666714 0.02539158 C23.88178382 0.02725558 26.25690089 0.02867957 28.63201809 0.0296793 C34.89727233 0.03350586 41.16250356 0.04333732 47.42774868 0.05438328 C53.81537979 0.06459443 60.2030146 0.06917628 66.59065151 0.0742197 C79.13428115 0.08495947 91.6778948 0.10184656 104.22151089 0.12304783 C105.39114617 2.4623184 105.34481678 3.81981431 105.3417654 6.42569065 C105.3438274 7.78028637 105.3438274 7.78028637 105.34593105 9.16224766 C105.34053814 10.65225536 105.34053814 10.65225536 105.33503628 12.17236423 C105.3351823 13.21628834 105.33532833 14.26021244 105.33547878 15.33577061 C105.33478011 18.79873806 105.32698979 22.26165223 105.31916714 25.72461033 C105.3173028 28.12071802 105.31587897 30.51682609 105.31487942 32.9129343 C105.3110555 39.22913758 105.30122626 45.54531797 105.29017544 51.86151218 C105.27995863 58.30285425 105.27538122 64.7442 105.27033901 71.18554783 C105.2596039 83.83139094 105.24272034 96.47721817 105.22151089 109.12304783 C104.56151089 108.79304783 103.90151089 108.46304783 103.22151089 108.12304783 C103.22151089 73.47304783 103.22151089 38.82304783 103.22151089 3.12304783 C68.90151089 3.12304783 34.58151089 3.12304783 -0.77848911 3.12304783 C-1.10848911 37.77304783 -1.43848911 72.42304783 -1.77848911 108.12304783 C-2.10848911 108.12304783 -2.43848911 108.12304783 -2.77848911 108.12304783 C-2.80181959 94.18925511 -2.81940261 80.2554654 -2.83030128 66.32165718 C-2.8355308 59.85237102 -2.84262967 53.38309794 -2.85392857 46.91381931 C-2.86475503 40.67634483 -2.87076543 34.43888296 -2.87336636 28.2013998 C-2.87522104 25.81584506 -2.87884247 23.43029104 -2.88421917 21.04474163 C-2.8914264 17.71609192 -2.89248019 14.38749504 -2.8920145 11.05883884 C-2.89560978 10.0619051 -2.89920506 9.06497135 -2.90290928 8.03782749 C-2.90153461 7.13613834 -2.90015995 6.2344492 -2.89874363 5.30543613 C-2.89966542 4.51730313 -2.90058722 3.72917013 -2.90153694 2.91715431 C-2.7345931 0.48301926 -2.43495303 0.16846641 0 0 Z " fill="#E48587" transform="translate(128.778489112854,180.87695217132568)"/>
<path d="M0 0 C2.97 0 5.94 0 9 0 C9.04934926 5.65998046 9.08569529 11.31983636 9.10986328 16.97998047 C9.11993582 18.90643494 9.13359443 20.83287408 9.15087891 22.75927734 C9.17507241 25.52445252 9.18647036 28.289426 9.1953125 31.0546875 C9.20563507 31.9193161 9.21595764 32.7839447 9.22659302 33.67477417 C9.22699106 35.78453521 9.12265243 37.89380718 9 40 C7 42 7 42 5.01171875 42.08984375 C4.24472656 42.03957031 3.47773437 41.98929688 2.6875 41.9375 C-1.41494545 41.83856643 -3.69473504 42.39585185 -7 45 C-7.66 45.66 -8.32 46.32 -9 47 C-9 44.69 -9 42.38 -9 40 C-6.94921875 39.77213542 -4.8984375 39.54427083 -2.84765625 39.31640625 C-0.98859771 39.18113386 -0.98859771 39.18113386 0 38 C0.08861992 35.1883662 0.11522355 32.40141745 0.09765625 29.58984375 C0.0962413 28.74780899 0.09482635 27.90577423 0.09336853 27.03822327 C0.08775263 24.33794665 0.07519748 21.63775172 0.0625 18.9375 C0.05748705 17.11132932 0.05292379 15.28515734 0.04882812 13.45898438 C0.03777804 8.97262458 0.02050279 4.48632616 0 0 Z " fill="#EA5354" transform="translate(124,91)"/>
<path d="M0 0 C2.97 0 5.94 0 9 0 C9 38.94 9 77.88 9 118 C8.67 118 8.34 118 8 118 C8 79.72 8 41.44 8 2 C5.69 2 3.38 2 1 2 C1 40.28 1 78.56 1 118 C0.34 118 -0.32 118 -1 118 C-1.02332961 102.76236936 -1.04097948 87.52473954 -1.05181217 72.28709507 C-1.056975 65.21246813 -1.06401744 58.13785226 -1.07543945 51.06323242 C-1.08644681 44.24221122 -1.09227618 37.42120156 -1.09487724 30.60017204 C-1.09673205 27.99133052 -1.1003537 25.38248967 -1.10573006 22.77365303 C-1.11293643 19.13367448 -1.11399111 15.49374425 -1.11352539 11.85375977 C-1.11712067 10.76331863 -1.12071594 9.6728775 -1.12442017 8.5493927 C-1.1230455 7.56356201 -1.12167084 6.57773132 -1.12025452 5.56202698 C-1.12117631 4.70015054 -1.1220981 3.8382741 -1.12304783 2.95028019 C-1 1 -1 1 0 0 Z " fill="#DB8889" transform="translate(391,177)"/>
<path d="M0 0 C2.97 0 5.94 0 9 0 C9 38.94 9 77.88 9 118 C8.67 118 8.34 118 8 118 C8 79.72 8 41.44 8 2 C5.69 2 3.38 2 1 2 C1 39.95 1 77.9 1 117 C0.01 117.495 0.01 117.495 -1 118 C-1.02332961 102.76236936 -1.04097948 87.52473954 -1.05181217 72.28709507 C-1.056975 65.21246813 -1.06401744 58.13785226 -1.07543945 51.06323242 C-1.08644681 44.24221122 -1.09227618 37.42120156 -1.09487724 30.60017204 C-1.09673205 27.99133052 -1.1003537 25.38248967 -1.10573006 22.77365303 C-1.11293643 19.13367448 -1.11399111 15.49374425 -1.11352539 11.85375977 C-1.11712067 10.76331863 -1.12071594 9.6728775 -1.12442017 8.5493927 C-1.1230455 7.56356201 -1.12167084 6.57773132 -1.12025452 5.56202698 C-1.12117631 4.70015054 -1.1220981 3.8382741 -1.12304783 2.95028019 C-1 1 -1 1 0 0 Z " fill="#C76162" transform="translate(404,177)"/>
<path d="M0 0 C2.99887456 2.50814963 3.89679481 4.9910568 5.0859375 8.671875 C5.45702637 9.80447754 5.82811523 10.93708008 6.21044922 12.10400391 C6.78690186 13.90877197 6.78690186 13.90877197 7.375 15.75 C7.77348145 16.97251465 8.17196289 18.1950293 8.58251953 19.45458984 C9.37223986 21.8777928 10.15861986 24.3020873 10.94140625 26.72753906 C12.22711177 30.70207708 13.54528017 34.66502431 14.875 38.625 C15.89782211 41.68993936 16.91939201 44.75512784 17.9296875 47.82421875 C19.26676296 51.99093495 19.26676296 51.99093495 21 56 C20.01 56 19.02 56 18 56 C17.34 54.35 16.68 52.7 16 51 C14.64560332 53.70879335 14.93498549 56.00933268 15 59 C12.84631584 55.76947376 11.74066634 52.59121553 10.5625 48.9375 C10.34005615 48.25921143 10.1176123 47.58092285 9.88842773 46.88208008 C8.73062417 43.33100411 7.61510087 39.77135534 6.5625 36.1875 C5.11340832 31.25388727 3.49741029 26.37871357 1.875 21.5 C1.60888916 20.69715576 1.34277832 19.89431152 1.06860352 19.06713867 C0.81651123 18.31279541 0.56441895 17.55845215 0.3046875 16.78125 C0.07765137 16.10126953 -0.14938477 15.42128906 -0.38330078 14.72070312 C-0.98949414 12.92165731 -0.98949414 12.92165731 -2 11 C-2.06950541 9.45976004 -2.08452357 7.91665012 -2.0625 6.375 C-2.05347656 5.55773437 -2.04445313 4.74046875 -2.03515625 3.8984375 C-2.02355469 3.27195313 -2.01195312 2.64546875 -2 2 C-1.34 2 -0.68 2 0 2 C0 1.34 0 0.68 0 0 Z " fill="#E07274" transform="translate(478,177)"/>
<path d="M0 0 C4.94791294 -0.0246826 9.8957902 -0.04285166 14.84375 -0.05493164 C16.52767562 -0.05996653 18.21159686 -0.06679481 19.89550781 -0.07543945 C22.31316203 -0.08754196 24.73075856 -0.09323668 27.1484375 -0.09765625 C27.9036972 -0.10281754 28.65895691 -0.10797882 29.43710327 -0.11329651 C34.77225659 -0.11387171 34.77225659 -0.11387171 37 1 C37 3.64 37 6.28 37 9 C24.79 9 12.58 9 0 9 C-1.53445094 5.93109813 -0.54984289 3.29905734 0 0 Z " fill="#E95355" transform="translate(35,283)"/>
<path d="M0 0 C3.09322404 0.3344026 4.58887768 0.5595118 6.75 2.875 C8.96569922 6.64168867 9.12862094 9.64150745 9.14044189 13.92799377 C9.14900711 15.78516525 9.14900711 15.78516525 9.15774536 17.67985535 C9.15899067 19.05422964 9.16011578 20.42860404 9.16113281 21.80297852 C9.16576134 23.24843472 9.17078605 24.6938897 9.17617798 26.13934326 C9.18929624 30.06686013 9.19574522 33.99435991 9.20018864 37.92189527 C9.20311886 40.37376909 9.20722346 42.82563822 9.21169281 45.27750969 C9.22536308 52.94375606 9.23503337 60.60999175 9.2388947 68.27624947 C9.24338157 77.13621585 9.26096042 85.99602843 9.2898953 94.85594803 C9.31147195 101.69929847 9.32159674 108.54260549 9.32293582 115.38598961 C9.32398628 119.4761982 9.32994539 123.56626212 9.34775543 127.65643501 C9.36416803 131.50025157 9.36642514 135.3438136 9.35761642 139.18765259 C9.35684251 140.60103471 9.36123516 142.01443016 9.37107468 143.42777824 C9.3836858 145.35147449 9.37616549 147.27527184 9.36749268 149.19898987 C9.36895924 150.27727838 9.3704258 151.35556688 9.3719368 152.4665308 C9.24919765 153.30257564 9.12645851 154.13862047 9 155 C7.515 155.99 7.515 155.99 6 157 C6.00276538 156.24277838 6.00553076 155.48555676 6.00837994 154.70538902 C6.07464455 136.27710321 6.12428292 117.8488412 6.15543652 99.42046165 C6.17090276 90.5086171 6.19198764 81.59685209 6.22631836 72.68505859 C6.25622814 64.91717463 6.27557677 57.14934828 6.28226548 49.38140833 C6.28617507 45.26865864 6.29535806 41.15607377 6.31719017 37.04337692 C6.3375803 33.17087657 6.34382873 29.29860866 6.33932304 25.42605972 C6.34014712 24.00629157 6.34609785 22.58651549 6.35761642 21.16679382 C6.37259823 19.22464653 6.36715312 17.28237401 6.36076355 15.34017944 C6.36352893 14.25430731 6.36629431 13.16843517 6.36914349 12.04965782 C5.77554051 7.14564074 3.75854036 3.22160602 0 0 Z " fill="#E0888A" transform="translate(256,155)"/>
<path d="M0 0 C0.66 0 1.32 0 2 0 C2.33 50.16 2.66 100.32 3 152 C1.68 151.67 0.36 151.34 -1 151 C-0.67 101.17 -0.34 51.34 0 0 Z " fill="#E79797" transform="translate(95,162)"/>
<path d="M0 0 C2.64 0 5.28 0 8 0 C8 12.54 8 25.08 8 38 C6.02 38.66 4.04 39.32 2 40 C-0.55781522 36.16327717 -0.25306456 33.05464013 -0.1953125 28.61328125 C-0.1924826 27.79627243 -0.18965271 26.97926361 -0.18673706 26.13749695 C-0.17554541 23.52901541 -0.1504429 20.9208777 -0.125 18.3125 C-0.11496888 16.54362475 -0.10584326 14.77474412 -0.09765625 13.00585938 C-0.07560942 8.67044051 -0.0410867 4.33527855 0 0 Z " fill="#EA5354" transform="translate(227,91)"/>
<path d="M0 0 C0.33 0 0.66 0 1 0 C1.33 1.65 1.66 3.3 2 5 C2.99 4.67 3.98 4.34 5 4 C2.62834698 14.87248234 -1.03964149 25.25516508 -4.6875 35.75 C-5.30059424 37.52588154 -5.91322799 39.30192212 -6.52539062 41.078125 C-8.01162839 45.38726733 -9.50406771 49.69421406 -11 54 C-11.33 54 -11.66 54 -12 54 C-12 52.35 -12 50.7 -12 49 C-12.66 49 -13.32 49 -14 49 C-14 49.66 -14 50.32 -14 51 C-14.66 51 -15.32 51 -16 51 C-15.25342372 46.76399112 -14.0505049 42.71691736 -12.75 38.625 C-12.52892578 37.92383057 -12.30785156 37.22266113 -12.08007812 36.50024414 C-9.80076583 29.30636649 -7.4063163 22.15231246 -5 15 C-4.06074472 12.18808419 -3.1240972 9.3753021 -2.1875 6.5625 C-1.76436959 5.29295319 -1.34119703 4.02342043 -0.91796875 2.75390625 C-0.61503906 1.84511719 -0.31210937 0.93632812 0 0 Z " fill="#E16567" transform="translate(515,180)"/>
<path d="M0 0 C0.33 1.32 0.66 2.64 1 4 C0.01 4.495 0.01 4.495 -1 5 C-1.02335924 19.53389976 -1.04092759 34.0677966 -1.05181217 48.60171127 C-1.05696869 55.35004046 -1.06399914 62.09835799 -1.07543945 68.84667969 C-1.08647016 75.3564881 -1.09228089 81.86628894 -1.09487724 88.37610626 C-1.09672805 90.86245159 -1.1003421 93.34879624 -1.10573006 95.83513641 C-1.11296561 99.31165513 -1.11398987 102.78812343 -1.11352539 106.26464844 C-1.11712067 107.29755005 -1.12071594 108.33045166 -1.12442017 109.39465332 C-1.1230455 110.34253723 -1.12167084 111.29042114 -1.12025452 112.26702881 C-1.12117631 113.08926815 -1.1220981 113.91150749 -1.12304783 114.75866318 C-1.00019489 116.99645 -0.73972175 118.88357543 0 121 C0.66 121.33 1.32 121.66 2 122 C1.01 122 0.02 122 -1 122 C-4.09156154 116.04332419 -4.43005134 111.14288396 -4.38818359 104.49414062 C-4.39344055 103.46073044 -4.39869751 102.42732025 -4.40411377 101.3625946 C-4.41727401 97.96032416 -4.40858948 94.55852488 -4.3984375 91.15625 C-4.40045937 88.78405671 -4.40337175 86.41186402 -4.40713501 84.03967285 C-4.41155299 79.073426 -4.40514405 74.10734126 -4.39111328 69.14111328 C-4.37402194 62.78242334 -4.38386591 56.42411332 -4.40183067 50.06543732 C-4.41268258 45.16861113 -4.40921566 40.27187469 -4.4014473 35.37504578 C-4.39944919 33.03073583 -4.40189084 30.68641767 -4.40888596 28.34211731 C-4.41652335 25.06314579 -4.40486349 21.7847855 -4.38818359 18.50585938 C-4.39425629 17.5414946 -4.40032898 16.57712982 -4.40658569 15.58354187 C-4.35518533 10.11616438 -4.1408182 4.1408182 0 0 Z " fill="#E58684" transform="translate(118,175)"/>
<path d="M0 0 C0.66349111 0.07087043 1.32698221 0.14174086 2.01057911 0.21475887 C8.78108331 0.89070403 15.45361677 1.13848404 22.25463867 1.11352539 C23.8517569 1.11374443 23.8517569 1.11374443 25.48114014 1.1139679 C28.96010458 1.11327765 32.4390138 1.10552728 35.91796875 1.09765625 C38.34605378 1.09578891 40.77413919 1.0943665 43.20222473 1.09336853 C49.5626837 1.08956823 55.92311947 1.0797594 62.28356934 1.06866455 C68.78604824 1.05839673 75.28853093 1.05385944 81.79101562 1.04882812 C94.52735359 1.03813471 107.26367555 1.02128334 120 1 C117.06794283 3.52487753 115.29252576 4.37542512 111.42802429 4.38095093 C110.51549896 4.3894104 109.60297363 4.39786987 108.66279602 4.40658569 C107.66894394 4.400513 106.67509186 4.39444031 105.65112305 4.38818359 C104.07240417 4.39606903 104.07240417 4.39606903 102.46179199 4.40411377 C98.97828378 4.41733019 95.49523172 4.40856767 92.01171875 4.3984375 C89.59039726 4.40045821 87.16907636 4.40336962 84.74775696 4.40713501 C79.6694256 4.41156098 74.59125244 4.40512004 69.51293945 4.39111328 C63.00955656 4.37404883 56.50654583 4.38384378 50.00317669 4.40183067 C45.0008312 4.41268438 39.99857353 4.40921436 34.99622536 4.4014473 C32.59888477 4.39944827 30.20153617 4.4018941 27.80420494 4.40888596 C24.44827626 4.41652321 21.09294488 4.40486237 17.73706055 4.38818359 C16.74928116 4.39425629 15.76150177 4.40032898 14.74378967 4.40658569 C9.05582687 4.35434035 5.06013134 3.63966268 0 1 C0 0.67 0 0.34 0 0 Z " fill="#E07372" transform="translate(119,298)"/>
<path d="M0 0 C2 3.75 2 3.75 2 6 C2.99 6 3.98 6 5 6 C5 5.34 5 4.68 5 4 C5.66 4 6.32 4 7 4 C7 3.34 7 2.68 7 2 C7.66 2 8.32 2 9 2 C9.68357764 8.83577643 7.79503908 13.94796252 5.3671875 20.3125 C3.6559639 24.9279145 2.31297306 29.61583563 0.9921875 34.35546875 C0.00598541 36.98404676 -0.8574619 38.23876106 -3 40 C-6.92395437 30.51711027 -6.92395437 30.51711027 -6 26 C-5.030625 25.443125 -4.06125 24.88625 -3.0625 24.3125 C0.19741523 22.34618138 0.19741523 22.34618138 0.69140625 19.37890625 C0.98456596 16.52523766 1.21804616 13.86185579 1 11 C0.34 10.34 -0.32 9.68 -1 9 C-1.75 5.5 -1.75 5.5 -2 2 C-1.34 1.34 -0.68 0.68 0 0 Z " fill="#DF6363" transform="translate(494,227)"/>
<path d="M0 0 C2.475 0.99 2.475 0.99 5 2 C4.835 2.99 4.67 3.98 4.5 5 C3.91525483 9.02732942 3.92867976 12.93474623 4 17 C4.94875 17 5.8975 17 6.875 17 C8.58333333 17 10.29166667 17 12 17 C13.34882408 16.36525925 14.6846659 15.70151152 16 15 C17.49739583 16.26953125 18.99479167 17.5390625 20.4921875 18.80859375 C22.00594079 20.0878152 22.00594079 20.0878152 24 21 C24 21.66 24 22.32 24 23 C22.35 23.33 20.7 23.66 19 24 C19 23.34 19 22.68 19 22 C18.34 22 17.68 22 17 22 C17 21.01 17 20.02 17 19 C15.68 19 14.36 19 13 19 C12.08921508 21.55019778 11.82156608 22.59554978 12.9375 25.125 C13.288125 25.74375 13.63875 26.3625 14 27 C14 27.66 14 28.32 14 29 C15.32 29 16.64 29 18 29 C18 29.66 18 30.32 18 31 C19.32 31.66 20.64 32.32 22 33 C15.71294555 33 12.50616371 30.60023681 8.01953125 26.3046875 C2.4465137 19.94476419 1.46383778 13.2331206 1 5 C-2.96 5 -6.92 5 -11 5 C-11 4.67 -11 4.34 -11 4 C-9.741875 3.896875 -8.48375 3.79375 -7.1875 3.6875 C-4.39500343 3.35141192 -3.25566879 3.19974124 -1 1.4375 C-0.67 0.963125 -0.34 0.48875 0 0 Z " fill="#E66366" transform="translate(83,298)"/>
<path d="M0 0 C-0.33 1.65 -0.66 3.3 -1 5 C-1.99 5.33 -2.98 5.66 -4 6 C-4.73323796 8.01508358 -4.73323796 8.01508358 -5 10 C-4.01 10.33 -3.02 10.66 -2 11 C-1.67 10.34 -1.34 9.68 -1 9 C1.64 9.33 4.28 9.66 7 10 C6.01 10.66 5.02 11.32 4 12 C0.80443086 14.54341217 -1.72723879 16.59085819 -4 20 C-4.66 18.68 -5.32 17.36 -6 16 C-5.01 16 -4.02 16 -3 16 C-3 15.34 -3 14.68 -3 14 C-5.92879371 14.62759865 -8.36095629 15.58622659 -11 17 C-11.33 16.34 -11.66 15.68 -12 15 C-12.66 15 -13.32 15 -14 15 C-13.96519531 15.77085937 -13.93039063 16.54171875 -13.89453125 17.3359375 C-13.86746094 18.33882812 -13.84039062 19.34171875 -13.8125 20.375 C-13.77769531 21.37273437 -13.74289063 22.37046875 -13.70703125 23.3984375 C-13.85205078 24.68621094 -13.85205078 24.68621094 -14 26 C-14.99 26.66 -15.98 27.32 -17 28 C-17.62621031 21.11168659 -15.35806067 15.41097745 -13 9 C-12.34 9 -11.68 9 -11 9 C-10.814375 8.443125 -10.62875 7.88625 -10.4375 7.3125 C-8.29564079 3.8669004 -4.25292361 0 0 0 Z " fill="#E55E5D" transform="translate(101,143)"/>
<path d="M0 0 C3.96 0 7.92 0 12 0 C12 12.54 12 25.08 12 38 C14.97 38 17.94 38 21 38 C21 42.29 21 46.58 21 51 C20.67 51 20.34 51 20 51 C20 47.7 20 44.4 20 41 C18.081875 41.0309375 18.081875 41.0309375 16.125 41.0625 C12.25 41.125 12.25 41.125 10 40 C10 27.13 10 14.26 10 1 C7.03 1 4.06 1 1 1 C1 13.21 1 25.42 1 38 C0.67 38 0.34 38 0 38 C0 25.46 0 12.92 0 0 Z " fill="#CF6A6A" transform="translate(123,90)"/>
<path d="M0 0 C2.13900328 2.13900328 2.57428301 3.27353619 3.47265625 6.09765625 C3.73240234 6.89880859 3.99214844 7.69996094 4.25976562 8.52539062 C4.52466797 9.36263672 4.78957031 10.19988281 5.0625 11.0625 C5.59242368 12.72089426 6.12484454 14.37849334 6.66015625 16.03515625 C6.89355713 16.7712915 7.12695801 17.50742676 7.36743164 18.26586914 C7.86323076 20.00388873 7.86323076 20.00388873 9 21 C10.47075246 16.58774263 11.36884358 13.51718381 10 9 C10.99 9.66 11.98 10.32 13 11 C12.80828103 21.10881835 12.80828103 21.10881835 9.5625 24.6875 C7 26 7 26 5 26 C4.67 27.32 4.34 28.64 4 30 C3.00130627 26.77606149 2.00811688 23.55095082 1.03125 20.3203125 C0.29867778 17.96165194 -0.51209313 15.62665933 -1.375 13.3125 C-2.26428412 8.59929414 -1.20016176 4.58831071 0 0 Z " fill="#DE6A6A" transform="translate(483,227)"/>
<path d="M0 0 C1.20970459 0.00523682 2.41940918 0.01047363 3.66577148 0.01586914 C4.97094727 0.0190918 6.27612305 0.02231445 7.62084961 0.02563477 C9.00952213 0.03399138 10.39819401 0.04245634 11.78686523 0.05102539 C13.17944179 0.05603873 14.57202005 0.06060193 15.96459961 0.06469727 C19.38456394 0.07653105 22.80444367 0.09301659 26.22436523 0.11352539 C26.22436523 0.77352539 26.22436523 1.43352539 26.22436523 2.11352539 C25.23436523 2.11352539 24.24436523 2.11352539 23.22436523 2.11352539 C22.89436523 3.43352539 22.56436523 4.75352539 22.22436523 6.11352539 C21.89436523 5.12352539 21.56436523 4.13352539 21.22436523 3.11352539 C20.71389648 3.31848633 20.20342773 3.52344727 19.67749023 3.73461914 C14.00519083 5.83658825 8.86697208 6.51995619 2.82592773 6.70727539 C-0.09718678 7.16373772 -0.98426887 7.82252684 -2.77563477 10.11352539 C-4.26669933 7.13139626 -3.89504944 4.39742881 -3.77563477 1.11352539 C-2.77563477 0.11352539 -2.77563477 0.11352539 0 0 Z " fill="#C45557" transform="translate(519.775634765625,176.886474609375)"/>
<path d="M0 0 C3.94946598 1.31648866 4.87590835 2.40069106 7 6 C7.59947651 9.67934575 7.55658615 13.32368597 7.53344727 17.04492188 C7.54206284 18.15928116 7.55067841 19.27364044 7.55955505 20.42176819 C7.58225302 24.10433189 7.57546899 27.78613704 7.56640625 31.46875 C7.57163986 34.02795641 7.57791537 36.58716088 7.58518982 39.1463623 C7.595601 44.50962403 7.59135083 49.87261034 7.57641602 55.23583984 C7.55948862 61.43055112 7.57533968 67.62455804 7.6076389 73.81919241 C7.6375682 79.78596752 7.63951706 85.75252376 7.6301403 91.71937561 C7.62931938 94.25514136 7.63620962 96.79092163 7.65091133 99.3266449 C7.66830593 102.86998038 7.65385489 106.41180386 7.63110352 109.95507812 C7.64279572 111.00458145 7.65448792 112.05408478 7.66653442 113.13539124 C7.56295861 121.05277904 7.56295861 121.05277904 4.46055603 124.19030762 C3.2425808 125.08610535 3.2425808 125.08610535 2 126 C2 124.68 2 123.36 2 122 C2.99 121.505 2.99 121.505 4 121 C4 83.38 4 45.76 4 7 C3.34 7 2.68 7 2 7 C1.01 6.67 0.02 6.34 -1 6 C-0.34 4.68 0.32 3.36 1 2 C0.34 1.67 -0.32 1.34 -1 1 C-0.67 0.67 -0.34 0.34 0 0 Z " fill="#E05A56" transform="translate(238,173)"/>
<path d="M0 0 C5.53588533 -0.02464775 11.071739 -0.04283496 16.60766602 -0.05493164 C18.4924373 -0.05997244 20.37720465 -0.06680498 22.26196289 -0.07543945 C24.96501636 -0.08751617 27.66801831 -0.09323068 30.37109375 -0.09765625 C31.21900986 -0.10281754 32.06692596 -0.10797882 32.9405365 -0.11329651 C34.96071068 -0.11349195 36.98077934 -0.06206211 39 0 C40 1 40 1 40.1328125 3.46875 C40.13023437 4.4690625 40.12765625 5.469375 40.125 6.5 C40.12886719 8.00046875 40.12886719 8.00046875 40.1328125 9.53125 C40 12 40 12 39 13 C36.1156618 13.08865208 33.25537842 13.11521296 30.37109375 13.09765625 C29.07474754 13.09553383 29.07474754 13.09553383 27.75221252 13.09336853 C24.98060708 13.08775239 22.2090812 13.07519719 19.4375 13.0625 C17.5631522 13.05748708 15.68880315 13.05292381 13.81445312 13.04882812 C9.20960456 13.03777772 4.60481579 13.0205023 0 13 C0 12.34 0 11.68 0 11 C12.54 11 25.08 11 38 11 C38 8.03 38 5.06 38 2 C37.35160156 2.01160156 36.70320313 2.02320313 36.03515625 2.03515625 C24.01167983 2.14575327 12.00901369 1.52780703 0 1 C0 0.67 0 0.34 0 0 Z " fill="#E69294" transform="translate(288,230)"/>
<path d="M0 0 C8.91 0 17.82 0 27 0 C27 0.66 27 1.32 27 2 C26.34 2 25.68 2 25 2 C25 3.32 25 4.64 25 6 C19.25 6.125 19.25 6.125 17 5 C17 4.01 17 3.02 17 2 C16.01 3.65 15.02 5.3 14 7 C10.7 6.34 7.4 5.68 4 5 C4 5.99 4 6.98 4 8 C3.34 8 2.68 8 2 8 C0 5 0 5 0 0 Z " fill="#CC5455" transform="translate(451,177)"/>
<path d="M0 0 C1.23556641 0.01740234 1.23556641 0.01740234 2.49609375 0.03515625 C3.32238281 0.04417969 4.14867187 0.05320312 5 0.0625 C5.63808594 0.07410156 6.27617187 0.08570313 6.93359375 0.09765625 C7.26359375 0.75765625 7.59359375 1.41765625 7.93359375 2.09765625 C4.96359375 2.09765625 1.99359375 2.09765625 -1.06640625 2.09765625 C-1.06640625 14.63765625 -1.06640625 27.17765625 -1.06640625 40.09765625 C-5.02640625 40.09765625 -8.98640625 40.09765625 -13.06640625 40.09765625 C-13.06640625 27.55765625 -13.06640625 15.01765625 -13.06640625 2.09765625 C-12.73640625 2.09765625 -12.40640625 2.09765625 -12.06640625 2.09765625 C-11.73640625 13.97765625 -11.40640625 25.85765625 -11.06640625 38.09765625 C-7.10640625 38.59265625 -7.10640625 38.59265625 -3.06640625 39.09765625 C-3.07164307 37.95176025 -3.07687988 36.80586426 -3.08227539 35.62524414 C-3.10032342 31.38924943 -3.11183753 27.15325813 -3.12133789 22.91723633 C-3.12637856 21.0809675 -3.13321102 19.24470271 -3.1418457 17.40844727 C-3.15392297 14.77489224 -3.15963706 12.14139009 -3.1640625 9.5078125 C-3.16922379 8.68177017 -3.17438507 7.85572784 -3.17970276 7.00465393 C-3.1798983 5.03529257 -3.12844777 3.06604011 -3.06640625 1.09765625 C-2.06640625 0.09765625 -2.06640625 0.09765625 0 0 Z " fill="#D06F6F" transform="translate(238.06640625,342.90234375)"/>
<path d="M0 0 C12.87 0 25.74 0 39 0 C39 0.66 39 1.32 39 2 C26.79 2 14.58 2 2 2 C2 4.64 2 7.28 2 10 C14.21 10 26.42 10 39 10 C39 10.33 39 10.66 39 11 C26.13 11 13.26 11 0 11 C0 7.37 0 3.74 0 0 Z " fill="#D35759" transform="translate(33,231)"/>
<path d="M0 0 C1.04798264 -0.00365067 2.09596527 -0.00730133 3.17570496 -0.01106262 C6.624872 -0.01914059 10.0735653 -0.00558323 13.52270508 0.0090332 C15.92450459 0.00955202 18.32630454 0.00903348 20.72810364 0.00752258 C25.75402185 0.00761218 30.77977922 0.01801762 35.80566406 0.03613281 C42.25202499 0.05885602 48.69815175 0.05935601 55.14454174 0.05261517 C60.10042915 0.04927681 65.05626302 0.05590219 70.01214027 0.0657444 C72.38962842 0.06959622 74.76712253 0.07074469 77.14461327 0.06915855 C80.46241019 0.06878836 83.77990469 0.08139425 87.09765625 0.09765625 C88.08215759 0.09517883 89.06665894 0.09270142 90.08099365 0.09014893 C90.98510483 0.09723373 91.889216 0.10431854 92.82072449 0.11161804 C93.99619984 0.11469735 93.99619984 0.11469735 95.19542217 0.11783886 C97.61544879 0.40303947 99.25302703 1.16793613 101.35473633 2.37231445 C100.78635921 2.37047087 100.2179821 2.36862728 99.63238144 2.36672783 C85.80299414 2.32256059 71.9736192 2.28959128 58.14417648 2.26869011 C51.4563602 2.2582433 44.76859637 2.2443166 38.08081055 2.22143555 C31.62935129 2.19973929 25.17794098 2.18775259 18.72644806 2.18255997 C16.26242553 2.17885843 13.79840574 2.17163048 11.33440399 2.16085434 C7.88897363 2.14638234 4.44374677 2.14433473 0.99829102 2.14526367 C-0.02525986 2.13807312 -1.04881073 2.13088257 -2.1033783 2.12347412 C-3.04284805 2.12622345 -3.98231781 2.12897278 -4.95025635 2.13180542 C-5.76512135 2.12996183 -6.57998634 2.12811825 -7.41954422 2.1262188 C-9.88572488 2.39890202 -11.4635494 3.2366497 -13.64526367 4.37231445 C-15.89526367 3.99731445 -15.89526367 3.99731445 -17.64526367 3.37231445 C-11.64954816 0.24882852 -6.69529254 -0.05230536 0 0 Z " fill="#D88586" transform="translate(136.645263671875,170.627685546875)"/>
<path d="M0 0 C1.37432457 3.81756824 0.67975039 7.07255329 0 11 C2.97065509 10.65772428 2.97065509 10.65772428 6 10 C6.33 9.34 6.66 8.68 7 8 C7.99 8 8.98 8 10 8 C10.33 10.64 10.66 13.28 11 16 C5.06 16 -0.88 16 -7 16 C-7 14.02 -7 12.04 -7 10 C-5.68 10 -4.36 10 -3 10 C-3 10.99 -3 11.98 -3 13 C-2.67 11.68 -2.34 10.36 -2 9 C-2.66 9 -3.32 9 -4 9 C-2.94124926 5.59687262 -1.99097846 2.98646769 0 0 Z " fill="#E16668" transform="translate(497,279)"/>
<path d="M0 0 C5.53588533 -0.02464775 11.071739 -0.04283496 16.60766602 -0.05493164 C18.4924373 -0.05997244 20.37720465 -0.06680498 22.26196289 -0.07543945 C24.96501636 -0.08751617 27.66801831 -0.09323068 30.37109375 -0.09765625 C31.21900986 -0.10281754 32.06692596 -0.10797882 32.9405365 -0.11329651 C34.96071068 -0.11349195 36.98077934 -0.06206211 39 0 C40 1 40 1 40.1328125 3.46875 C40.13023437 4.4690625 40.12765625 5.469375 40.125 6.5 C40.12886719 8.00046875 40.12886719 8.00046875 40.1328125 9.53125 C40 12 40 12 39 13 C36.1156618 13.08865208 33.25537842 13.11521296 30.37109375 13.09765625 C29.07474754 13.09553383 29.07474754 13.09553383 27.75221252 13.09336853 C24.98060708 13.08775239 22.2090812 13.07519719 19.4375 13.0625 C17.5631522 13.05748708 15.68880315 13.05292381 13.81445312 13.04882812 C9.20960456 13.03777772 4.60481579 13.0205023 0 13 C0 12.67 0 12.34 0 12 C12.68126897 10.9825916 25.28352102 10.89480854 38 11 C38 7.7 38 4.4 38 1 C25.46 1 12.92 1 0 1 C0 0.67 0 0.34 0 0 Z " fill="#EEA1A2" transform="translate(288,179)"/>
<path d="M0 0 C0.99 0 1.98 0 3 0 C2.2746597 3.9856328 1.23403586 7.81037943 0.0625 11.6875 C-0.27652344 12.82574219 -0.61554687 13.96398437 -0.96484375 15.13671875 C-2 18 -2 18 -4 20 C-3.67 16.7 -3.34 13.4 -3 10 C-3.598125 11.423125 -4.19625 12.84625 -4.8125 14.3125 C-6.15260817 17.50103323 -7.39954125 19.6975881 -10 22 C-9.80664062 21.3709375 -9.61328125 20.741875 -9.4140625 20.09375 C-7.7907875 14.75783615 -6.30539435 9.42240732 -5 4 C-6.65 4 -8.3 4 -10 4 C-7.4345406 1.4345406 -5.52313332 1.45953913 -2 1 C-1.67 1.66 -1.34 2.32 -1 3 C-0.67 2.01 -0.34 1.02 0 0 Z " fill="#D75D64" transform="translate(543,179)"/>
<path d="M0 0 C0.66 0.33 1.32 0.66 2 1 C1.44736496 6.89477377 -1.66006388 11.68045548 -5.79296875 15.77734375 C-12.16999346 20.98333798 -18.84691119 22.41810712 -27 22 C-26 20 -26 20 -24.14453125 19.3671875 C-19.68502511 18.4259852 -15.58835504 17.76469974 -11 18 C-11 17.01 -11 16.02 -11 15 C-9.68 15 -8.36 15 -7 15 C-7.04125 14.278125 -7.0825 13.55625 -7.125 12.8125 C-6.95025417 8.88071878 -6.01495462 6.13206477 -3.375 3.1875 C-2.92125 2.795625 -2.4675 2.40375 -2 2 C-1.34 2.33 -0.68 2.66 0 3 C0 2.01 0 1.02 0 0 Z " fill="#DF777B" transform="translate(273,310)"/>
<path d="M0 0 C0.33 0 0.66 0 1 0 C1 12.54 1 25.08 1 38 C3.97 38 6.94 38 10 38 C10 41.3 10 44.6 10 48 C9.67 48 9.34 48 9 48 C9 45.69 9 43.38 9 41 C7.72125 41.20625 6.4425 41.4125 5.125 41.625 C2.9453125 41.9765625 2.9453125 41.9765625 1 42 C-1 40 -1 40 -1.23046875 36.38671875 C-1.22775478 34.82024937 -1.21252781 33.25377178 -1.1875 31.6875 C-1.18105469 30.85822998 -1.17460937 30.02895996 -1.16796875 29.17456055 C-1.0518483 19.43949404 -0.54156375 9.71913508 0 0 Z " fill="#D57172" transform="translate(236,90)"/>
<path d="M0 0 C0.33 0 0.66 0 1 0 C1.66 2.64 2.32 5.28 3 8 C3.66 8 4.32 8 5 8 C5 7.01 5 6.02 5 5 C6.32 5.33 7.64 5.66 9 6 C8.34 6 7.68 6 7 6 C7.30035156 6.67546875 7.60070312 7.3509375 7.91015625 8.046875 C8.48056641 9.38492188 8.48056641 9.38492188 9.0625 10.75 C9.44535156 11.63171875 9.82820313 12.5134375 10.22265625 13.421875 C11.04600008 16.15256309 10.9773992 17.36901347 10 20 C9.34 19.67 8.68 19.34 8 19 C7.67 20.65 7.34 22.3 7 24 C5.13044183 20.48802624 3.74725893 16.8565813 2.375 13.125 C1.92898438 11.93132812 1.48296875 10.73765625 1.0234375 9.5078125 C0.03628446 6.1243643 -0.20319846 3.49715242 0 0 Z " fill="#E0777A" transform="translate(450,177)"/>
<path d="M0 0 C0.66 0 1.32 0 2 0 C0.65587198 8.47154372 -2.1773171 15.38876529 -6 23 C-6.66 23 -7.32 23 -8 23 C-7.85848172 20.9163691 -7.71162064 18.83310062 -7.5625 16.75 C-7.48128906 15.58984375 -7.40007813 14.4296875 -7.31640625 13.234375 C-7.06752213 10.69022624 -6.71885058 8.44046752 -6 6 C-4.02 5.67 -2.04 5.34 0 5 C0 3.35 0 1.7 0 0 Z " fill="#D96D6F" transform="translate(523,241)"/>
<path d="M0 0 C0.495 1.485 0.495 1.485 1 3 C0.525625 3.433125 0.05125 3.86625 -0.4375 4.3125 C-2.23686957 6.02309613 -2.23686957 6.02309613 -3 9 C-1.68 9.66 -0.36 10.32 1 11 C1 12.65 1 14.3 1 16 C0.34 16 -0.32 16 -1 16 C-1.495 14.515 -1.495 14.515 -2 13 C-2.99 12.34 -3.98 11.68 -5 11 C-5 10.34 -5 9.68 -5 9 C-18.2 9 -31.4 9 -45 9 C-45 8.67 -45 8.34 -45 8 C-43.90534424 7.98541748 -42.81068848 7.97083496 -41.68286133 7.95581055 C-37.61043095 7.89771261 -33.53854685 7.82048073 -29.46655273 7.73754883 C-27.70622645 7.70435346 -25.94579512 7.67630476 -24.18530273 7.65356445 C-21.65042475 7.6199188 -19.11650477 7.5675994 -16.58203125 7.51171875 C-15.79850784 7.50532883 -15.01498444 7.4989389 -14.2077179 7.49235535 C-9.64092698 7.37026325 -6.64122111 6.81341793 -3 4 C-1.21655822 1.93045153 -1.21655822 1.93045153 0 0 Z " fill="#CF5F60" transform="translate(261,312)"/>
<path d="M0 0 C0.268125 0.639375 0.53625 1.27875 0.8125 1.9375 C1.88667752 4.33131686 1.88667752 4.33131686 5 5 C4.27595226 9.04704581 3.16553713 12.89070402 1.9375 16.8125 C1.57527344 17.97394531 1.21304688 19.13539063 0.83984375 20.33203125 C0.56269531 21.21246094 0.28554688 22.09289062 0 23 C-0.66 22.67 -1.32 22.34 -2 22 C-1.34 19.03 -0.68 16.06 0 13 C-0.99 13 -1.98 13 -3 13 C-3.33 13.66 -3.66 14.32 -4 15 C-3.34728444 11.48294042 -2.48606976 8.10674923 -1.4375 4.6875 C-1.16808594 3.80449219 -0.89867187 2.92148438 -0.62109375 2.01171875 C-0.41613281 1.34785156 -0.21117187 0.68398437 0 0 Z " fill="#DF7879" transform="translate(517,210)"/>
<path d="M0 0 C8.58 0 17.16 0 26 0 C25.67 1.32 25.34 2.64 25 4 C24.67 3.01 24.34 2.02 24 1 C23.47792969 1.22816406 22.95585938 1.45632812 22.41796875 1.69140625 C16.75679075 3.90233916 12.47859719 4.10940392 6.48046875 3.2265625 C4.01414309 3.00129181 2.33937691 3.24747316 0 4 C0 2.68 0 1.36 0 0 Z " fill="#E75252" transform="translate(517,179)"/>
<path d="M0 0 C0.99 0 1.98 0 3 0 C6.30386425 4.06629447 6.57219593 7.95191192 7 13 C6.34 13 5.68 13 5 13 C5 13.99 5 14.98 5 16 C4.34 16 3.68 16 3 16 C0.1647887 10.4477112 -0.37952295 6.19887485 0 0 Z " fill="#DD6A6B" transform="translate(482,197)"/>
<path d="M0 0 C0.66 0 1.32 0 2 0 C1.85930804 2.12534659 1.71229079 4.25027529 1.5625 6.375 C1.48128906 7.55835938 1.40007813 8.74171875 1.31640625 9.9609375 C1 13 1 13 0 15 C-0.99 15 -1.98 15 -3 15 C-3 16.98 -3 18.96 -3 21 C-4.32 21 -5.64 21 -7 21 C-6.59713473 15.0577372 -5.89713014 12.60569925 -2 8 C-0.57146863 4.0931837 -0.57146863 4.0931837 0 0 Z " fill="#DD5D5D" transform="translate(538,189)"/>
<path d="M0 0 C0.99 0 1.98 0 3 0 C2.85879286 1.93784265 2.71187127 3.87526955 2.5625 5.8125 C2.48128906 6.89144531 2.40007813 7.97039062 2.31640625 9.08203125 C2 12 2 12 1 15 C-1.0625 15.6875 -1.0625 15.6875 -3 16 C-4.12029814 10.51053913 -3.79217969 7.16569441 -2 2 C-1.34 2 -0.68 2 0 2 C0 1.34 0 0.68 0 0 Z " fill="#E0666A" transform="translate(514,223)"/>
<path d="M0 0 C0.99 1.32 1.98 2.64 3 4 C3.66 3.34 4.32 2.68 5 2 C4.67 3.65 4.34 5.3 4 7 C4.66 7 5.32 7 6 7 C6.33 8.32 6.66 9.64 7 11 C6.34 11 5.68 11 5 11 C5 10.01 5 9.02 5 8 C3.68 8 2.36 8 1 8 C1.33 9.65 1.66 11.3 2 13 C0.68 13 -0.64 13 -2 13 C-2.66 10.03 -3.32 7.06 -4 4 C-2.68 3.34 -1.36 2.68 0 2 C0 1.34 0 0.68 0 0 Z " fill="#E47475" transform="translate(489,281)"/>
<path d="M0 0 C0.66 0 1.32 0 2 0 C2.33 6.6 2.66 13.2 3 20 C6.96 20.33 10.92 20.66 15 21 C15 23.97 15 26.94 15 30 C14.67 30 14.34 30 14 30 C13.67 27.69 13.34 25.38 13 23 C8.71 22.67 4.42 22.34 0 22 C0 14.74 0 7.48 0 0 Z " fill="#D35A5B" transform="translate(273,252)"/>
<path d="M0 0 C2.18975773 3.28463659 2.99806563 6.20696275 4 10 C3.34 10 2.68 10 2 10 C2.66 14.62 3.32 19.24 4 24 C3.34 24.33 2.68 24.66 2 25 C-0.9120062 18.2011529 -2.65538713 13.31129316 -1 6 C-0.34 6 0.32 6 1 6 C0.67 4.02 0.34 2.04 0 0 Z " fill="#E27475" transform="translate(488,204)"/>
<path d="M0 0 C0.33 0 0.66 0 1 0 C1.33 1.65 1.66 3.3 2 5 C2.99 4.67 3.98 4.34 5 4 C3.38808348 10.85921925 1.64031672 17.46207289 -1 24 C-1.33 24 -1.66 24 -2 24 C-2 22.02 -2 20.04 -2 18 C-1.34 18 -0.68 18 0 18 C0 15.69 0 13.38 0 11 C-0.66 10.67 -1.32 10.34 -2 10 C-2.33 10.99 -2.66 11.98 -3 13 C-2.52060632 8.28596212 -2.03165952 4.33420699 0 0 Z " fill="#DD7476" transform="translate(515,180)"/>
<path d="M0 0 C2 3.75 2 3.75 2 6 C2.99 6 3.98 6 5 6 C5 5.34 5 4.68 5 4 C5.66 4 6.32 4 7 4 C7 3.34 7 2.68 7 2 C7.66 2 8.32 2 9 2 C8.6875 5.375 8.6875 5.375 8 9 C5 11 5 11 2.3125 10.625 C1.549375 10.41875 0.78625 10.2125 0 10 C-1.125 6.6875 -1.125 6.6875 -2 3 C-1.34 2.01 -0.68 1.02 0 0 Z " fill="#E45155" transform="translate(494,227)"/>
<path d="M0 0 C0.66 0 1.32 0 2 0 C2 0.99 2 1.98 2 3 C2.66 3.33 3.32 3.66 4 4 C5.0317435 6.93300669 5.10790988 9.66212836 5.0625 12.75 C5.05347656 13.54921875 5.04445313 14.3484375 5.03515625 15.171875 C5.01775391 16.07679688 5.01775391 16.07679688 5 17 C4.34 17 3.68 17 3 17 C2.67 15.35 2.34 13.7 2 12 C1.01 12.495 1.01 12.495 0 13 C-2.03844169 8.92311662 -2.07759755 6.40835361 -1 2 C-0.67 1.34 -0.34 0.68 0 0 Z " fill="#E16265" transform="translate(466,179)"/>
<path d="M0 0 C0.33 0 0.66 0 1 0 C1 2.64 1 5.28 1 8 C1.66 8 2.32 8 3 8 C3.33 6.35 3.66 4.7 4 3 C5.37543445 5.75086891 4.60276952 6.91920726 3.6875 9.8125 C3.40648437 10.70324219 3.12546875 11.59398437 2.8359375 12.51171875 C1.98283053 15.05110724 1.06535557 17.54148716 0 20 C-0.33 20 -0.66 20 -1 20 C-1 17.69 -1 15.38 -1 13 C-1.99 13.66 -2.98 14.32 -4 15 C-2.9318153 9.88634986 -1.76892524 4.92772031 0 0 Z " fill="#DD7071" transform="translate(498,268)"/>
<path d="M0 0 C1.2380014 3.57644848 0.74926071 6.33694766 0 10 C0.66 10 1.32 10 2 10 C2 8.35 2 6.7 2 5 C2.66 5.33 3.32 5.66 4 6 C2.29977612 13.12647031 0.42080258 20.0834212 -2 27 C-2.33 27 -2.66 27 -3 27 C-3.16764451 22.64124269 -3.10212528 19.81010208 -1 16 C-1 14.68 -1 13.36 -1 12 C-1.66 12 -2.32 12 -3 12 C-2.49202991 7.6822542 -1.80317221 3.96697886 0 0 Z " fill="#D97776" transform="translate(515,254)"/>
<path d="M0 0 C0.33 0.66 0.66 1.32 1 2 C4.3 2 7.6 2 11 2 C11 6.29 11 10.58 11 15 C17.6 15 24.2 15 31 15 C31 15.33 31 15.66 31 16 C24.07 16 17.14 16 10 16 C8.73762269 13.47524538 8.90143596 11.68799534 8.9375 8.875 C8.94652344 7.96492187 8.95554688 7.05484375 8.96484375 6.1171875 C8.97644531 5.41851562 8.98804688 4.71984375 9 4 C7.88625 4.020625 6.7725 4.04125 5.625 4.0625 C2 4 2 4 0 3 C0 2.01 0 1.02 0 0 Z " fill="#D05758" transform="translate(184,127)"/>
<path d="M0 0 C0.66 0 1.32 0 2 0 C2.33 2.64 2.66 5.28 3 8 C-2.94 8 -8.88 8 -15 8 C-15 6.02 -15 4.04 -15 2 C-13.68 2 -12.36 2 -11 2 C-11 2.99 -11 3.98 -11 5 C-6.71 5.33 -2.42 5.66 2 6 C2 5.34 2 4.68 2 4 C1.34 4 0.68 4 0 4 C0 2.68 0 1.36 0 0 Z " fill="#E25152" transform="translate(505,287)"/>
<path d="M0 0 C3.09322404 0.3344026 4.58887768 0.5595118 6.75 2.875 C9.09871274 6.86781166 9.11751608 10.0888184 9.09765625 14.63671875 C9.09443359 15.93544922 9.09121094 17.23417969 9.08789062 18.57226562 C9.07953531 19.94401108 9.07107037 21.31575587 9.0625 22.6875 C9.05748335 24.07096195 9.05292073 25.45442563 9.04882812 26.83789062 C9.03702529 30.22530395 9.02056019 33.61263033 9 37 C8.67 37 8.34 37 8 37 C7.98598145 35.82812134 7.98598145 35.82812134 7.97167969 34.63256836 C7.91774688 31.06692236 7.8341419 27.50255585 7.75 23.9375 C7.73582031 22.70837891 7.72164063 21.47925781 7.70703125 20.21289062 C7.48866735 12.1115899 6.77632385 7.18092998 1.25 1.0625 C0.8375 0.711875 0.425 0.36125 0 0 Z " fill="#D25A5C" transform="translate(256,155)"/>
<path d="M0 0 C0.66 0 1.32 0 2 0 C2.33 7.26 2.66 14.52 3 22 C2.01 22 1.02 22 0 22 C-0.97556564 19.07330309 -1.0606341 17.55938679 -0.87890625 14.55078125 C-0.83056641 13.70322266 -0.78222656 12.85566406 -0.73242188 11.98242188 C-0.67634766 11.10134766 -0.62027344 10.22027344 -0.5625 9.3125 C-0.51029297 8.41982422 -0.45808594 7.52714844 -0.40429688 6.60742188 C-0.2747182 4.4045844 -0.13975754 2.20221127 0 0 Z " fill="#D35658" transform="translate(273,200)"/>
<path d="M0 0 C0.05410687 1.77049689 0.09284119 3.54146849 0.125 5.3125 C0.14820313 6.29863281 0.17140625 7.28476563 0.1953125 8.30078125 C0 11 0 11 -2 14 C-2 12.35 -2 10.7 -2 9 C-2.66 9 -3.32 9 -4 9 C-4 9.66 -4 10.32 -4 11 C-4.66 11 -5.32 11 -6 11 C-5.39102647 7.44765442 -4.54266151 4.2668126 -3 1 C-1 0 -1 0 0 0 Z " fill="#DD6163" transform="translate(505,220)"/>
<path d="M0 0 C0.33 0 0.66 0 1 0 C1.66 2.64 2.32 5.28 3 8 C3.66 8 4.32 8 5 8 C5 7.01 5 6.02 5 5 C6.32 5.33 7.64 5.66 9 6 C8.34 6 7.68 6 7 6 C7 8.31 7 10.62 7 13 C5.68 13.33 4.36 13.66 3 14 C0.96006486 9.07015675 -0.40652968 5.42039575 0 0 Z " fill="#DE7072" transform="translate(450,177)"/>
<path d="M0 0 C1.98 0.99 3.96 1.98 6 3 C5.40138258 5.35171131 4.73075648 7.6859378 4 10 C3.01 10.495 3.01 10.495 2 11 C1.01 7.7 0.02 4.4 -1 1 C-0.67 0.67 -0.34 0.34 0 0 Z " fill="#DC6D70" transform="translate(489,256)"/>
<path d="M0 0 C0.99 0.66 1.98 1.32 3 2 C2.39009109 5.55780196 1.4216319 8.6828589 0 12 C-0.66 12 -1.32 12 -2 12 C-2 8.37 -2 4.74 -2 1 C-1.34 0.67 -0.68 0.34 0 0 Z " fill="#DC6262" transform="translate(501,264)"/>
<path d="M0 0 C0.268125 0.639375 0.53625 1.27875 0.8125 1.9375 C1.88667752 4.33131686 1.88667752 4.33131686 5 5 C5.33 7.31 5.66 9.62 6 12 C4.02 12.99 4.02 12.99 2 14 C1.66179834 12.4176994 1.32964061 10.83410625 1 9.25 C0.814375 8.36828125 0.62875 7.4865625 0.4375 6.578125 C0 4 0 4 0 0 Z " fill="#E85458" transform="translate(483,271)"/>
<path d="M0 0 C4.62 0 9.24 0 14 0 C13.67 0.66 13.34 1.32 13 2 C10.35139573 2.59355614 7.70802678 2.74209269 5 3 C4.67 3.99 4.34 4.98 4 6 C3.34 6 2.68 6 2 6 C0 3 0 3 0 0 Z " fill="#EA5252" transform="translate(451,179)"/>
<path d="M0 0 C3.81807415 1.27269138 4.87322524 2.61103065 7 6 C7.171875 9.33203125 7.171875 9.33203125 6.75 12.8125 C6.62109375 13.97394531 6.4921875 15.13539063 6.359375 16.33203125 C6.24078125 17.21246094 6.1221875 18.09289062 6 19 C5.67 19 5.34 19 5 19 C4.67 15.04 4.34 11.08 4 7 C3.34 7 2.68 7 2 7 C1.01 6.67 0.02 6.34 -1 6 C-0.34 4.68 0.32 3.36 1 2 C0.34 1.67 -0.32 1.34 -1 1 C-0.67 0.67 -0.34 0.34 0 0 Z " fill="#DE6B6D" transform="translate(238,173)"/>
<path d="M0 0 C0.33 0.99 0.66 1.98 1 3 C0.2884375 3.6496875 0.2884375 3.6496875 -0.4375 4.3125 C-2.23686957 6.02309613 -2.23686957 6.02309613 -3 9 C-1.68 9.66 -0.36 10.32 1 11 C1 12.65 1 14.3 1 16 C0.34 16 -0.32 16 -1 16 C-1.33 15.01 -1.66 14.02 -2 13 C-2.99 12.34 -3.98 11.68 -5 11 C-5 10.34 -5 9.68 -5 9 C-5.66 8.67 -6.32 8.34 -7 8 C-6.01 8 -5.02 8 -4 8 C-3.8453125 7.13375 -3.8453125 7.13375 -3.6875 6.25 C-2.90207202 3.67950842 -1.69495803 2.06342716 0 0 Z " fill="#DF6464" transform="translate(261,312)"/>
<path d="M0 0 C0.66 0.33 1.32 0.66 2 1 C1.46930939 4.82097239 0.50298434 7.06171403 -2 10 C-3.32 9.34 -4.64 8.68 -6 8 C-4.84826645 5.53199953 -3.95216435 3.95216435 -2 2 C-1.34 2.33 -0.68 2.66 0 3 C0 2.01 0 1.02 0 0 Z " fill="#E6686B" transform="translate(273,310)"/>
<path d="M0 0 C0.66 0 1.32 0 2 0 C1.88512252 1.58409994 1.75765492 3.16728963 1.625 4.75 C1.55539062 5.63171875 1.48578125 6.5134375 1.4140625 7.421875 C1.00149945 9.99066382 0.28839043 11.75841015 -1 14 C-1.66 14 -2.32 14 -3 14 C-2.67 10.37 -2.34 6.74 -2 3 C-1.34 3 -0.68 3 0 3 C0 2.01 0 1.02 0 0 Z " fill="#E15454" transform="translate(518,250)"/>
<path d="M0 0 C1.32 0.33 2.64 0.66 4 1 C3.27991594 5.60853797 1.68704061 9.67237409 0 14 C-0.33 14 -0.66 14 -1 14 C-1 12.35 -1 10.7 -1 9 C-2.32 9.33 -3.64 9.66 -5 10 C-4.67 8.35 -4.34 6.7 -4 5 C-2.68 5.66 -1.36 6.32 0 7 C0 4.69 0 2.38 0 0 Z " fill="#DF7B7B" transform="translate(534,203)"/>
<path d="M0 0 C2.64 0.33 5.28 0.66 8 1 C7.01 1.66 6.02 2.32 5 3 C1.80443086 5.54341217 -0.72723879 7.59085819 -3 11 C-3.66 9.68 -4.32 8.36 -5 7 C-4.01 7 -3.02 7 -2 7 C-2 6.34 -2 5.68 -2 5 C-1.34 5 -0.68 5 0 5 C0 3.35 0 1.7 0 0 Z " fill="#E07177" transform="translate(100,152)"/>
<path d="M0 0 C0.99 0.66 1.98 1.32 3 2 C3.1875 5.125 3.1875 5.125 3 8 C0.69 7.34 -1.62 6.68 -4 6 C-4 4.68 -4 3.36 -4 2 C-2.68 1.34 -1.36 0.68 0 0 Z " fill="#E15151" transform="translate(492,251)"/>
<path d="M0 0 C0.33 1.32 0.66 2.64 1 4 C1.99 4 2.98 4 4 4 C3.25 10.625 3.25 10.625 1 14 C0.87625 12.865625 0.7525 11.73125 0.625 10.5625 C0.41875 9.386875 0.2125 8.21125 0 7 C-0.66 6.67 -1.32 6.34 -2 6 C-1.125 1.125 -1.125 1.125 0 0 Z " fill="#DE7B7C" transform="translate(504,215)"/>
<path d="M0 0 C1.32 0.33 2.64 0.66 4 1 C4 1.99 4 2.98 4 4 C3.01 4.66 2.02 5.32 1 6 C-0.19232613 8.05003955 -0.19232613 8.05003955 -1 10 C-3 7 -3 7 -2.625 4.3125 C-2.41875 3.549375 -2.2125 2.78625 -2 2 C-1.34 2 -0.68 2 0 2 C0 1.34 0 0.68 0 0 Z " fill="#E26263" transform="translate(523,199)"/>
<path d="M0 0 C1.15884085 3.47652255 0.77936396 4.47004036 -0.3125 7.875 C-0.73402344 9.19757813 -0.73402344 9.19757813 -1.1640625 10.546875 C-2.02418311 13.07096725 -2.9395056 15.55270524 -4 18 C-4.66 18 -5.32 18 -6 18 C-3.10933941 5.33029613 -3.10933941 5.33029613 0 0 Z " fill="#DD7F80" transform="translate(527,183)"/>
<path d="M0 0 C0.99 0.33 1.98 0.66 3 1 C2.80664062 1.64066406 2.61328125 2.28132812 2.4140625 2.94140625 C0.9059252 7.95110985 -0.57717786 12.96539857 -2 18 C-2.33 18 -2.66 18 -3 18 C-3.16983922 12.98974299 -3.11595908 9.60532269 -1 5 C-0.63128912 3.34080104 -0.28718326 1.6752357 0 0 Z " fill="#DE7B7D" transform="translate(530,182)"/>
<path d="M0 0 C0.66 0 1.32 0 2 0 C1.67 4.29 1.34 8.58 1 13 C-0.32 12.67 -1.64 12.34 -3 12 C-2.37916238 9.41317658 -1.67452392 6.87040655 -0.9375 4.3125 C0.04538708 1.41340063 0.04538708 1.41340063 0 0 Z " fill="#E25657" transform="translate(538,189)"/>
<path d="M0 0 C2 3 2 3 2 6 C0.35 6 -1.3 6 -3 6 C-3 5.01 -3 4.02 -3 3 C-4.65 3 -6.3 3 -8 3 C-5.48696401 0.48696401 -3.51117809 0 0 0 Z " fill="#E26769" transform="translate(541,180)"/>
<path d="M0 0 C4.875 4.625 4.875 4.625 6 8 C5.67 8.99 5.34 9.98 5 11 C2.44971017 9.72485508 2.06918289 8.59658703 1 6 C1 5.01 1 4.02 1 3 C-0.65 3.33 -2.3 3.66 -4 4 C-4 3.34 -4 2.68 -4 2 C-2.68 2 -1.36 2 0 2 C0 1.34 0 0.68 0 0 Z " fill="#E57173" transform="translate(266,147)"/>
<path d="M0 0 C1.485 0.99 1.485 0.99 3 2 C3.6875 5.625 3.6875 5.625 4 9 C3.01 9.33 2.02 9.66 1 10 C-0.80411967 7.24075815 -1.0127245 6.11027897 -0.625 2.75 C-0.41875 1.8425 -0.2125 0.935 0 0 Z " fill="#DE5B5B" transform="translate(460,203)"/>
<path d="M0 0 C1.04327633 3.33532281 1.03074612 6.15310627 0.75 9.625 C0.68296875 10.58664063 0.6159375 11.54828125 0.546875 12.5390625 C0 15 0 15 -3 17 C-3.40214229 10.83381819 -1.96818336 5.82254243 0 0 Z " fill="#E27C7E" transform="translate(87,154)"/>
<path d="M0 0 C1.50539661 0.94983358 3.00420347 1.91011891 4.5 2.875 C5.75296875 3.67550781 5.75296875 3.67550781 7.03125 4.4921875 C7.6809375 4.98976563 8.330625 5.48734375 9 6 C9 6.66 9 7.32 9 8 C7.35 8.33 5.7 8.66 4 9 C4 8.34 4 7.68 4 7 C3.34 7 2.68 7 2 7 C1.34 4.69 0.68 2.38 0 0 Z " fill="#DF7175" transform="translate(98,313)"/>
<path d="M0 0 C0.99 0.66 1.98 1.32 3 2 C2.94004678 3.79260132 2.8512759 5.58425795 2.75 7.375 C2.70359375 8.37273437 2.6571875 9.37046875 2.609375 10.3984375 C2 13 2 13 -0.046875 14.3515625 C-0.69140625 14.56554687 -1.3359375 14.77953125 -2 15 C-1.690625 14.0925 -1.38125 13.185 -1.0625 12.25 C-0.711875 11.1775 -0.36125 10.105 0 9 C0.226875 8.319375 0.45375 7.63875 0.6875 6.9375 C1.09082781 4.43686759 0.60954306 2.43817226 0 0 Z " fill="#E58D8F" transform="translate(493,236)"/>
<path d="M0 0 C0.66 0.33 1.32 0.66 2 1 C2.59355614 3.64860427 2.74209269 6.29197322 3 9 C1.68 9 0.36 9 -1 9 C-1.09765625 2.84765625 -1.09765625 2.84765625 -1 1 C-0.67 0.67 -0.34 0.34 0 0 Z " fill="#E26060" transform="translate(472,237)"/>
<path d="M0 0 C0.33 0 0.66 0 1 0 C1.06058594 0.72445313 1.12117188 1.44890625 1.18359375 2.1953125 C1.61483433 7.17116533 2.07047641 12.08680391 3 17 C1.68 16.67 0.36 16.34 -1 16 C-0.67 10.72 -0.34 5.44 0 0 Z " fill="#D85F60" transform="translate(95,297)"/>
<path d="M0 0 C1.65 0 3.3 0 5 0 C5 4.95 5 9.9 5 15 C4.67 15 4.34 15 4 15 C4 11.04 4 7.08 4 3 C2.35 3 0.7 3 -1 3 C-0.67 2.01 -0.34 1.02 0 0 Z " fill="#ED948F" transform="translate(109,329)"/>
<path d="M0 0 C1.9451 2.91765 2.45276317 4.62537285 3 8 C1.68 8.33 0.36 8.66 -1 9 C-1.33 10.32 -1.66 11.64 -2 13 C-2.33 10.69 -2.66 8.38 -3 6 C-2.01 6.33 -1.02 6.66 0 7 C0 4.69 0 2.38 0 0 Z " fill="#E07A7C" transform="translate(489,244)"/>
<path d="M0 0 C0.33 0 0.66 0 1 0 C1 1.65 1 3.3 1 5 C0.34 5 -0.32 5 -1 5 C-1 6.65 -1 8.3 -1 10 C-1.99 10.33 -2.98 10.66 -4 11 C-3.56534471 6.47958496 -3.21201178 3.3458456 0 0 Z " fill="#E65254" transform="translate(524,236)"/>
<path d="M0 0 C0.99 0.33 1.98 0.66 3 1 C2.39009109 4.55780196 1.4216319 7.6828589 0 11 C-0.66 11 -1.32 11 -2 11 C-1.85957123 9.35369672 -1.71250671 7.70795821 -1.5625 6.0625 C-1.48128906 5.14597656 -1.40007812 4.22945312 -1.31640625 3.28515625 C-1 1 -1 1 0 0 Z " fill="#E15557" transform="translate(509,239)"/>
<path d="M0 0 C1.0326802 2.78823655 1.04509293 3.8677274 0.0625 6.75 C-0.288125 7.4925 -0.63875 8.235 -1 9 C-1.66 8.34 -2.32 7.68 -3 7 C-3 6.01 -3 5.02 -3 4 C-3.66 4 -4.32 4 -5 4 C-4.67 3.01 -4.34 2.02 -4 1 C-4 1.66 -4 2.32 -4 3 C-2.68 2.01 -1.36 1.02 0 0 Z " fill="#DE7371" transform="translate(510,283)"/>
<path d="M0 0 C0.33 0 0.66 0 1 0 C1.49230769 7.26153846 1.49230769 7.26153846 -1 11 C-1.66 11.66 -2.32 12.32 -3 13 C-2.52060632 8.28596212 -2.03165952 4.33420699 0 0 Z " fill="#DD767B" transform="translate(510,195)"/>
<path d="M0 0 C2 3 2 3 1.375 6.4375 C0.01655007 9.95712027 -1.14261825 11.61884854 -4 14 C-3.79503906 13.32453125 -3.59007812 12.6490625 -3.37890625 11.953125 C-3.10949219 11.06109375 -2.84007812 10.1690625 -2.5625 9.25 C-2.16224609 7.92742187 -2.16224609 7.92742187 -1.75390625 6.578125 C-1.11531506 4.39434165 -0.53224167 2.21164502 0 0 Z " fill="#DE7A78" transform="translate(537,187)"/>
<path d="M0 0 C3.63 0 7.26 0 11 0 C11 0.66 11 1.32 11 2 C6.74433453 3.16063604 3.3164922 2.76173392 -1 2 C-0.67 1.34 -0.34 0.68 0 0 Z " fill="#D75356" transform="translate(276,171)"/>
<path d="M0 0 C-0.33 1.65 -0.66 3.3 -1 5 C-2.98 5.33 -4.96 5.66 -7 6 C-7.33 5.34 -7.66 4.68 -8 4 C-2.25 0 -2.25 0 0 0 Z " fill="#E07274" transform="translate(101,143)"/>
<path d="M0 0 C2.64 0.66 5.28 1.32 8 2 C8 2.66 8 3.32 8 4 C9.32 4.66 10.64 5.32 12 6 C7.5428126 5.73781251 5.48477302 5.42288711 2.0625 2.4375 C1.381875 1.633125 0.70125 0.82875 0 0 Z " fill="#DF878B" transform="translate(93,325)"/>
<path d="M0 0 C1.32 0 2.64 0 4 0 C4 2.31 4 4.62 4 7 C2.68 6.34 1.36 5.68 0 5 C0 3.35 0 1.7 0 0 Z " fill="#DE5659" transform="translate(485,244)"/>
<path d="M0 0 C0.33 0 0.66 0 1 0 C1 2.64 1 5.28 1 8 C-0.98 8.99 -0.98 8.99 -3 10 C-2.25 3.375 -2.25 3.375 0 0 Z " fill="#E55456" transform="translate(510,203)"/>
<path d="M0 0 C1.32 0.66 2.64 1.32 4 2 C4 3.65 4 5.3 4 7 C3.01 7 2.02 7 1 7 C-1 4 -1 4 -0.625 1.8125 C-0.41875 1.214375 -0.2125 0.61625 0 0 Z " fill="#DF5F5D" transform="translate(458,195)"/>
<path d="M0 0 C3.06204329 0.33103171 4.60050904 0.60050904 6.8125 2.8125 C8 5 8 5 8 9 C7.34 9 6.68 9 6 9 C5.566875 8.071875 5.13375 7.14375 4.6875 6.1875 C3.27961373 3.52815927 2.23876444 1.91894095 0 0 Z " fill="#E18288" transform="translate(256,155)"/>
<path d="M0 0 C1.32 0.33 2.64 0.66 4 1 C3.39009109 4.55780196 2.4216319 7.6828589 1 11 C0.67 11 0.34 11 0 11 C0 7.37 0 3.74 0 0 Z " fill="#DD7479" transform="translate(539,188)"/>
<path d="M0 0 C2.35953094 2.35953094 2.49141413 3.77895617 3 7 C2.01 7.495 2.01 7.495 1 8 C-0.13350534 10.01669827 -0.13350534 10.01669827 -1 12 C-2.3609623 9.2780754 -1.70366248 7.8168043 -1.0625 4.875 C-0.86785156 3.96492187 -0.67320312 3.05484375 -0.47265625 2.1171875 C-0.31667969 1.41851562 -0.16070312 0.71984375 0 0 Z " fill="#E17D7C" transform="translate(483,227)"/>
<path d="M0 0 C0.33 0 0.66 0 1 0 C0.40546697 9.59453303 0.40546697 9.59453303 -3 13 C-2.52060632 8.28596212 -2.03165952 4.33420699 0 0 Z " fill="#DE8184" transform="translate(515,180)"/>
<path d="M0 0 C0 2.64 0 5.28 0 8 C-0.99 8.33 -1.98 8.66 -3 9 C-3.6875 6.1875 -3.6875 6.1875 -4 3 C-1.8 0 -1.8 0 0 0 Z " fill="#DD5453" transform="translate(507,252)"/>
<path d="M0 0 C0.66 0 1.32 0 2 0 C1.67 3.3 1.34 6.6 1 10 C-1.56687367 6.1496895 -0.83288724 4.41430237 0 0 Z " fill="#DA5959" transform="translate(481,227)"/>
<path d="M0 0 C0.99 0.33 1.98 0.66 3 1 C3.73046875 3.06640625 3.73046875 3.06640625 4.1875 5.5625 C4.34605469 6.38878906 4.50460937 7.21507812 4.66796875 8.06640625 C4.77753906 8.70449219 4.88710938 9.34257812 5 10 C4.01 10.495 4.01 10.495 3 11 C2.49384702 9.73160474 1.99530901 8.46016898 1.5 7.1875 C1.2215625 6.47980469 0.943125 5.77210938 0.65625 5.04296875 C0 3 0 3 0 0 Z " fill="#E28887" transform="translate(487,218)"/>
<path d="M0 0 C0.99 0 1.98 0 3 0 C3.33 1.65 3.66 3.3 4 5 C2.68 5.33 1.36 5.66 0 6 C0 4.02 0 2.04 0 0 Z " fill="#DD5656" transform="translate(482,197)"/>
<path d="M0 0 C0.66 0.33 1.32 0.66 2 1 C1.67 4.3 1.34 7.6 1 11 C-0.64350079 7.71299843 -1.41321669 5.52069985 -2 2 C-1.34 2 -0.68 2 0 2 C0 1.34 0 0.68 0 0 Z " fill="#D95759" transform="translate(480,184)"/>
<path d="M0 0 C0 0.99 0 1.98 0 3 C-2.97 3 -5.94 3 -9 3 C-6.01800145 0.01800145 -4.21244839 0 0 0 Z " fill="#E48E8F" transform="translate(174,342)"/>
<path d="M0 0 C0.99 0.495 0.99 0.495 2 1 C2 1.66 2 2.32 2 3 C3.32 2.67 4.64 2.34 6 2 C5.67 3.32 5.34 4.64 5 6 C4.34 6 3.68 6 3 6 C2.01 6.495 2.01 6.495 1 7 C0.67 4.69 0.34 2.38 0 0 Z " fill="#DB6D6C" transform="translate(457,199)"/>
<path d="M0 0 C-0.33 0.66 -0.66 1.32 -1 2 C-3.06640625 2.4140625 -3.06640625 2.4140625 -5.5625 2.625 C-6.38878906 2.69976562 -7.21507812 2.77453125 -8.06640625 2.8515625 C-9.02353516 2.92503906 -9.02353516 2.92503906 -10 3 C-9 1 -9 1 -7.25 0.375 C-4.79549443 -0.03408426 -2.4840589 -0.06900164 0 0 Z " fill="#DE6368" transform="translate(256,329)"/>
<path d="M0 0 C0.66 0 1.32 0 2 0 C2.268125 0.969375 2.53625 1.93875 2.8125 2.9375 C3.204375 3.948125 3.59625 4.95875 4 6 C4.99 6.33 5.98 6.66 7 7 C6.34 7.66 5.68 8.32 5 9 C0 3.375 0 3.375 0 0 Z " fill="#E08687" transform="translate(87,316)"/>
<path d="M0 0 C0.66 0.99 1.32 1.98 2 3 C0.02 3.99 0.02 3.99 -2 5 C-2.99 3.68 -3.98 2.36 -5 1 C-3 0 -3 0 0 0 Z " fill="#EA5B5E" transform="translate(127,289)"/>
<path d="M0 0 C1.125 1.6875 1.125 1.6875 2 4 C1.00449408 7.80102261 0.34152484 8.77231678 -3 11 C-3 9.68 -3 8.36 -3 7 C-2.34 6.67 -1.68 6.34 -1 6 C-0.34227572 2.97065509 -0.34227572 2.97065509 0 0 Z " fill="#DF787B" transform="translate(243,288)"/>
<path d="M0 0 C1.40907283 2.81814566 0.50872691 4.17277204 -0.4375 7.125 C-0.72496094 8.03507812 -1.01242187 8.94515625 -1.30859375 9.8828125 C-1.53675781 10.58148438 -1.76492188 11.28015625 -2 12 C-2.33 12 -2.66 12 -3 12 C-3 9.69 -3 7.38 -3 5 C-2.34 5 -1.68 5 -1 5 C-0.67 3.35 -0.34 1.7 0 0 Z " fill="#DB7D78" transform="translate(502,271)"/>
<path d="M0 0 C1.32 0.33 2.64 0.66 4 1 C3.67 3.64 3.34 6.28 3 9 C2.67 9 2.34 9 2 9 C1.34 6.03 0.68 3.06 0 0 Z " fill="#E16D75" transform="translate(493,250)"/>
<path d="M0 0 C0.99 0 1.98 0 3 0 C2.67 1.98 2.34 3.96 2 6 C1.01 5.67 0.02 5.34 -1 5 C-0.67 3.35 -0.34 1.7 0 0 Z " fill="#DD5451" transform="translate(514,223)"/>
<path d="M0 0 C2 3 2 3 2 7 C0.02 7.99 0.02 7.99 -2 9 C-2 7.68 -2 6.36 -2 5 C-1.34 5 -0.68 5 0 5 C0 3.35 0 1.7 0 0 Z " fill="#D75E5F" transform="translate(487,276)"/>
<path d="M0 0 C0.66 0 1.32 0 2 0 C2.33 2.97 2.66 5.94 3 9 C2.01 8.34 1.02 7.68 0 7 C-0.1875 3.375 -0.1875 3.375 0 0 Z " fill="#E75455" transform="translate(471,198)"/>
<path d="M0 0 C0.66 0 1.32 0 2 0 C2.33 1.32 2.66 2.64 3 4 C1.02 4.99 1.02 4.99 -1 6 C-0.67 4.02 -0.34 2.04 0 0 Z " fill="#D95A59" transform="translate(507,280)"/>
<path d="M0 0 C0.99 0.495 0.99 0.495 2 1 C3.04449911 4.13349732 2.93423645 4.98968256 2 8 C1.34 8 0.68 8 0 8 C0 5.36 0 2.72 0 0 Z " fill="#E05453" transform="translate(499,268)"/>
<path d="M0 0 C0.99 0.66 1.98 1.32 3 2 C3 2.99 3 3.98 3 5 C1.35 5 -0.3 5 -2 5 C-1.125 1.125 -1.125 1.125 0 0 Z " fill="#DA5556" transform="translate(468,224)"/>
</svg>
